<svg width="80" height="80" viewBox="0 0 80 80" fill="none" xmlns="http://www.w3.org/2000/svg">
<g clip-path="url(#clip0)">
<path d="M23.5239 14.3069L23.0758 13.8227H23.0591L23.4459 14.4154L25.394 17.7299L24.2029 18.4284L20.8634 12.7151L22.4858 11.7661L25.6945 14.8885L24.548 10.5528L26.1732 9.60379L29.5127 15.3171L28.3299 16.0128L26.3986 12.7234L26.0424 12.0221H26.0257L26.2567 12.7457L27.2808 16.6417L26.432 17.1399L23.5239 14.3069Z" fill="#262626"/>
<path d="M34.3326 10.55C34.2853 10.1993 34.3344 9.84237 34.4746 9.5175C34.7946 8.82734 35.4875 8.64923 35.9662 8.58801C36.4069 8.50701 36.8618 8.56437 37.2686 8.7522C37.8558 9.08615 37.9755 9.70952 38.0228 10.1437L38.2788 12.3254C38.2905 12.5807 38.346 12.8321 38.443 13.0685C38.4583 13.1063 38.4829 13.1397 38.5145 13.1655C38.5461 13.1912 38.5837 13.2086 38.6239 13.216V13.28L37.3382 13.4497L37.2352 12.9766H37.1962C37.0869 13.2179 36.9062 13.4199 36.6786 13.5555C36.4783 13.694 36.2451 13.7775 36.0024 13.7976C35.5042 13.8616 35.0506 13.8171 34.7278 13.3913C34.5589 13.1581 34.4508 12.8865 34.4133 12.601C34.3663 12.3377 34.3961 12.0664 34.4993 11.8196C34.6024 11.5728 34.7745 11.361 34.995 11.2095C35.2894 11.04 35.6087 10.918 35.9412 10.8477C36.3669 10.7336 36.5979 10.6752 36.6842 10.55C36.7466 10.4111 36.7604 10.2551 36.7231 10.1075C36.7157 9.98363 36.6764 9.86381 36.609 9.75961C36.5562 9.67498 36.478 9.60921 36.3855 9.57173C36.293 9.53424 36.1911 9.52695 36.0942 9.55089C36.0032 9.55364 35.9143 9.57867 35.8352 9.62379C35.7561 9.66891 35.6893 9.73275 35.6406 9.8097C35.5558 9.99204 35.5259 10.1951 35.5543 10.3941L34.3326 10.55ZM36.879 11.2568C36.6725 11.3726 36.4542 11.4659 36.2278 11.5351C36.0567 11.5836 35.9031 11.6802 35.7853 11.8134C35.7038 11.9562 35.6721 12.122 35.6953 12.2848C35.7185 12.4475 35.7952 12.5979 35.9133 12.7123C36.014 12.7818 36.1373 12.8106 36.2584 12.793C36.3511 12.7807 36.4404 12.7497 36.5207 12.7018C36.6011 12.654 36.6709 12.5903 36.7259 12.5147C36.8344 12.3673 36.9008 12.1932 36.918 12.011C36.933 11.8434 36.933 11.6748 36.918 11.5073L36.879 11.2568Z" fill="#262626"/>
<path d="M46.5996 14.1371L46.697 13.5805H46.6497C46.5326 13.7452 46.3756 13.8774 46.1933 13.9646C45.9377 14.1025 45.6394 14.1383 45.3584 14.0648C45.0904 14.0237 44.839 13.9091 44.6322 13.7337C44.4253 13.5583 44.2712 13.329 44.1868 13.0713C43.9959 12.4372 43.9872 11.7621 44.1618 11.1232C44.2741 10.5496 44.5191 10.0102 44.877 9.54813C45.0677 9.30765 45.3258 9.12945 45.6182 9.03626C45.9106 8.94308 46.2242 8.93914 46.5189 9.02494C46.7245 9.06693 46.9176 9.15549 47.0836 9.28382C47.2496 9.41215 47.3839 9.57683 47.4762 9.76519L47.9493 7.67245L49.2044 7.95074L47.7267 14.4154L46.5996 14.1371ZM47.1228 10.6195C47.1106 10.4766 47.0531 10.3412 46.9586 10.2332C46.8642 10.1252 46.7376 10.0502 46.5975 10.0191C46.4574 9.98802 46.3111 10.0025 46.1798 10.0605C46.0485 10.1184 45.9392 10.2168 45.8677 10.3413C45.646 10.6634 45.4969 11.03 45.4308 11.4155C45.3279 11.7924 45.3043 12.1866 45.3612 12.5731C45.374 12.7157 45.4314 12.8506 45.5254 12.9585C45.6193 13.0665 45.745 13.142 45.8844 13.1742C46.0255 13.212 46.1752 13.2013 46.3095 13.1438C46.4437 13.0862 46.5547 12.9852 46.6247 12.857C46.8371 12.5297 46.9827 12.1637 47.0532 11.78C47.1506 11.4051 47.1752 11.0149 47.1256 10.6307L47.1228 10.6195Z" fill="#262626"/>
<path d="M56.6905 17.4766C56.3657 17.832 55.9224 18.0567 55.4437 18.1083C54.9607 18.1143 54.4895 17.9586 54.1052 17.6659C53.8477 17.5268 53.6255 17.3306 53.4557 17.0923C53.2859 16.8539 53.173 16.5799 53.1256 16.2911C53.031 15.6204 53.4039 14.8356 53.7378 14.3431C54.0839 13.7447 54.6358 13.2926 55.2907 13.0713C55.5827 12.9885 55.89 12.975 56.1881 13.0321C56.4862 13.0891 56.7669 13.215 57.0077 13.3997C57.2973 13.5614 57.5364 13.8001 57.6985 14.0895C57.8606 14.3788 57.9394 14.7074 57.9261 15.0388C57.8509 15.6567 57.6264 16.2469 57.2721 16.7586L57.1274 16.9813L54.6534 15.3672C54.452 15.6503 54.3326 15.9835 54.3083 16.3301C54.3188 16.4485 54.3584 16.5625 54.4234 16.662C54.4884 16.7615 54.577 16.8434 54.6812 16.9006C54.7685 16.9723 54.8735 17.0192 54.9851 17.0363C55.0968 17.0534 55.211 17.0402 55.3157 16.998C55.4255 16.9424 55.526 16.8701 55.6135 16.7837L56.6905 17.4766ZM56.4539 15.5703C56.6205 15.3325 56.7292 15.059 56.7712 14.7716C56.7813 14.6519 56.7548 14.5318 56.6952 14.4274C56.6356 14.3231 56.5456 14.2393 56.4372 14.1872C56.3502 14.1248 56.25 14.0831 56.1444 14.0653C56.0388 14.0474 55.9305 14.0539 55.8278 14.0843C55.5272 14.2101 55.2706 14.4222 55.0903 14.6937L56.4539 15.5703Z" fill="#262626"/>
<path d="M16.0628 53.6543L11.8356 55.9391L11.2234 54.8064L15.4506 52.5217L16.0628 53.6543ZM17.0396 51.6423L17.6714 52.8194L16.6807 53.3537L16.0517 52.1877L17.0396 51.6423Z" fill="#262626"/>
<path d="M18.9098 58.3852C19.1268 58.3545 19.348 58.3755 19.5554 58.4465C19.8162 58.5393 20.0476 58.6997 20.2261 58.9112C20.3602 59.0454 20.4619 59.2084 20.5236 59.3877C20.5853 59.5671 20.6054 59.7582 20.5823 59.9464C20.51 60.4001 20.1343 60.8203 19.6834 61.2349L17.4571 63.2776L16.5861 62.3286L18.6371 60.4474C19.1102 60.0132 19.2131 59.8296 19.2493 59.7294C19.2956 59.6386 19.3111 59.5352 19.2935 59.4348C19.2759 59.3345 19.2262 59.2425 19.1519 59.1728C19.0807 59.094 18.9898 59.0357 18.8885 59.0039C18.7872 58.9721 18.6793 58.968 18.5758 58.9919C18.2405 59.0936 17.94 59.2863 17.7076 59.5485L15.7122 61.3796L14.8412 60.4307L18.3866 57.1802L19.2215 58.093L18.9098 58.3852Z" fill="#262626"/>
<path d="M29.5655 63.6282L32.1953 64.5187C32.7241 64.6968 33.1109 64.9167 33.3363 65.3759C33.4424 65.6163 33.4997 65.8754 33.505 66.1381C33.5102 66.4008 33.4633 66.662 33.3669 66.9065C33.3026 67.1444 33.1914 67.3672 33.04 67.5617C32.8885 67.7561 32.6997 67.9185 32.4848 68.0391C32.2926 68.124 32.0811 68.1558 31.8725 68.1309L31.853 68.1866C31.9611 68.2345 32.057 68.3062 32.1336 68.3963C32.2102 68.4864 32.2656 68.5926 32.2955 68.707C32.4124 69.0966 32.2788 69.5419 32.148 69.9676C31.8948 70.8025 31.7946 71.0084 31.8697 71.412L30.5562 70.9667C30.4922 70.6244 30.5562 70.3767 30.8178 69.5753C30.9041 69.3248 31.0321 68.9463 30.8428 68.643C30.7322 68.4858 30.5662 68.3765 30.3781 68.3369L29.5265 68.0586L28.7473 70.3656L27.4366 69.9231L29.5655 63.6282ZM29.9217 66.8898L30.8985 67.2209C31.0624 67.2846 31.2413 67.2991 31.4133 67.2627C31.5378 67.2141 31.6483 67.1357 31.7352 67.0342C31.8221 66.9328 31.8826 66.8115 31.9115 66.681C31.9644 66.5308 32.0952 66.1245 31.8614 65.8462C31.7258 65.7331 31.5641 65.6557 31.3911 65.6208L30.4588 65.3035L29.9217 66.8898Z" fill="#262626"/>
<path d="M39.9708 71.9379C39.8466 72.0867 39.7002 72.2153 39.5367 72.3192C39.2922 72.4529 39.0165 72.5192 38.738 72.5112C38.5521 72.5218 38.3663 72.4877 38.1964 72.4117C38.0264 72.3357 37.8771 72.22 37.7612 72.0743C37.4384 71.6707 37.4105 71.1504 37.4217 70.5047L37.4801 67.4964L38.7658 67.5215L38.7101 70.3044C38.7101 70.9389 38.7491 71.1587 38.8242 71.2923C38.8632 71.3749 38.9258 71.4441 39.004 71.4911C39.0823 71.5382 39.1727 71.561 39.2639 71.5566C39.3705 71.5646 39.4771 71.5428 39.572 71.4937C39.6668 71.4445 39.7461 71.37 39.801 71.2784C39.9619 70.9613 40.0313 70.6057 40.0014 70.2515L40.0543 67.5549L41.34 67.5799L41.2454 72.3859L39.9597 72.3609L39.9708 71.9379Z" fill="#262626"/>
<path d="M47.4707 69.9287C47.506 70.1177 47.6041 70.2893 47.749 70.4157C47.8322 70.4649 47.9255 70.4947 48.0219 70.5029C48.1183 70.5111 48.2152 70.4975 48.3056 70.463C48.3903 70.4492 48.471 70.4171 48.5421 70.3691C48.6132 70.321 48.673 70.2581 48.7174 70.1847C48.7497 70.127 48.7686 70.0628 48.7729 69.9969C48.7773 69.9309 48.7669 69.8649 48.7425 69.8034C48.7315 69.7328 48.706 69.6653 48.6677 69.6049C48.6294 69.5446 48.5791 69.4928 48.5199 69.4528C48.35 69.3761 48.1618 69.3491 47.9772 69.3749L47.5319 69.3999C47.1365 69.4577 46.7327 69.4007 46.3687 69.2357C46.2219 69.1442 46.0963 69.0223 46.0003 68.8784C45.9043 68.7344 45.8402 68.5716 45.8121 68.4009C45.7278 68.1763 45.703 67.9338 45.74 67.6968C45.7771 67.4598 45.8748 67.2365 46.0236 67.0484C46.3365 66.7272 46.739 66.508 47.1785 66.4194C47.5985 66.2739 48.053 66.2603 48.4809 66.3805C48.6883 66.4747 48.8704 66.6166 49.0126 66.7946C49.1548 66.9725 49.2529 67.1815 49.2991 67.4046L48.1664 67.7135C48.1284 67.5856 48.0596 67.469 47.9661 67.374C47.8982 67.3301 47.8207 67.3033 47.7402 67.296C47.6598 67.2888 47.5787 67.3012 47.5041 67.3322C47.3578 67.3598 47.2231 67.4306 47.1173 67.5354C47.0736 67.5913 47.0447 67.6573 47.033 67.7273C47.0214 67.7972 47.0274 67.869 47.0505 67.9361C47.0661 68.012 47.0994 68.083 47.1478 68.1435C47.1962 68.204 47.2582 68.2521 47.3288 68.284C47.5295 68.3418 47.7405 68.3541 47.9466 68.3201L48.3223 68.2951C48.6728 68.2438 49.0308 68.289 49.3575 68.4259C49.5245 68.5303 49.6682 68.6679 49.7798 68.8302C49.8913 68.9925 49.9683 69.176 50.0059 69.3693C50.0919 69.6027 50.1138 69.8549 50.0693 70.0996C50.0247 70.3443 49.9154 70.5726 49.7527 70.7608C49.4335 71.0786 49.0314 71.3004 48.5922 71.4008C48.1945 71.533 47.7713 71.5702 47.3566 71.5094C47.0713 71.4373 46.8135 71.2827 46.6155 71.0649C46.4175 70.8471 46.2881 70.5758 46.2435 70.2849L47.4707 69.9287Z" fill="#262626"/>
<path d="M55.4159 66.7339C55.4981 66.9056 55.6366 67.0441 55.8083 67.1263C55.9009 67.151 55.9978 67.1543 56.0918 67.136C56.1858 67.1176 56.2744 67.0782 56.351 67.0206C56.4293 66.983 56.4983 66.9286 56.5531 66.8612C56.608 66.7939 56.6473 66.7152 56.6682 66.631C56.683 66.5671 56.6834 66.5008 56.6695 66.4368C56.6555 66.3728 56.6275 66.3127 56.5875 66.2608C56.5582 66.1955 56.5156 66.137 56.4624 66.0891C56.4092 66.0412 56.3466 66.0049 56.2786 65.9825C56.0945 65.9546 55.9063 65.9797 55.7359 66.0549L55.3241 66.1773C54.9599 66.3418 54.556 66.3979 54.1608 66.3387C53.9939 66.2938 53.8385 66.2136 53.7051 66.1037C53.5717 65.9938 53.4633 65.8567 53.3872 65.7015C53.2447 65.5092 53.1543 65.2835 53.1246 65.0461C53.0948 64.8087 53.1268 64.5676 53.2174 64.3462C53.4294 63.9522 53.7553 63.6312 54.1525 63.425C54.5153 63.1681 54.949 63.03 55.3936 63.0299C55.6185 63.0629 55.8322 63.1487 56.0175 63.2803C56.2028 63.4119 56.3542 63.5855 56.4595 63.7868L55.4576 64.3935C55.3889 64.2795 55.2934 64.1839 55.1794 64.1152C55.102 64.0912 55.02 64.0865 54.9404 64.1015C54.8609 64.1166 54.7862 64.1509 54.723 64.2015C54.5904 64.2679 54.4809 64.3726 54.4085 64.502C54.3817 64.5677 54.3718 64.639 54.3796 64.7094C54.3873 64.7799 54.4126 64.8473 54.453 64.9055C54.4879 64.9736 54.5383 65.0325 54.6002 65.0775C54.6621 65.1225 54.7337 65.1522 54.8092 65.1644C55.018 65.1657 55.2244 65.12 55.4131 65.0308L55.7666 64.9055C56.0885 64.7584 56.4449 64.7035 56.7962 64.7469C56.9853 64.8009 57.1612 64.8932 57.313 65.0182C57.4648 65.1431 57.5892 65.2981 57.6784 65.4733C57.8223 65.6723 57.911 65.9058 57.9355 66.1502C57.9599 66.3946 57.9192 66.6411 57.8176 66.8647C57.5973 67.2573 57.2715 67.5803 56.8769 67.797C56.5315 68.0345 56.1348 68.1871 55.7192 68.2422C55.4236 68.2544 55.1311 68.1786 54.8785 68.0246C54.6259 67.8705 54.4246 67.6451 54.3 67.3768L55.4159 66.7339Z" fill="#262626"/>
<path d="M57.6978 58.6885L58.6357 57.7535L59.4316 58.5522L58.4909 59.4984L57.6978 58.6885ZM59.9047 59.0531L63.297 62.4566L62.387 63.3638L58.9946 59.9603L59.9047 59.0531Z" fill="#262626"/>
<path d="M63.9649 56.6014C63.6616 56.4198 63.4134 56.1591 63.2469 55.8472C62.9046 55.1654 63.1996 54.5114 63.4501 54.0968C63.6618 53.7019 63.9903 53.3821 64.3907 53.1812C65.0196 52.9279 65.5818 53.2229 65.9436 53.4595L67.8109 54.6172C68.0184 54.7673 68.2499 54.8811 68.4955 54.9539C68.5347 54.9655 68.5761 54.967 68.616 54.9582C68.6559 54.9494 68.693 54.9307 68.7237 54.9038L68.7821 54.9372L68.1114 56.0504L67.6801 55.8472L67.6606 55.8806C67.7796 56.1189 67.8224 56.388 67.7831 56.6515C67.7667 56.8941 67.6871 57.1282 67.5521 57.3305C67.2933 57.7618 66.9732 58.0874 66.4389 58.0763C66.1498 58.0632 65.8686 57.9781 65.6208 57.8286C65.3845 57.7016 65.1899 57.509 65.0606 57.274C64.9312 57.039 64.8725 56.7716 64.8916 56.504C64.9419 56.167 65.0452 55.8402 65.1978 55.5355C65.3731 55.132 65.476 54.9149 65.4287 54.7674C65.3814 54.6199 65.2005 54.5198 65.1031 54.4613C65.0018 54.3902 64.884 54.3461 64.7608 54.3333C64.661 54.3223 64.5603 54.3433 64.4733 54.3934C64.3862 54.4434 64.3174 54.5198 64.2766 54.6116C64.2217 54.6846 64.1856 54.77 64.1716 54.8603C64.1575 54.9506 64.1658 55.0429 64.1959 55.1292C64.2865 55.3086 64.4265 55.4583 64.5994 55.5606L63.9649 56.6014ZM66.1078 55.0485C66.0699 55.282 66.0064 55.5107 65.9185 55.7303C65.8509 55.894 65.8306 56.0733 65.8601 56.2479C65.9203 56.4017 66.0304 56.5308 66.1726 56.6145C66.3149 56.6983 66.4812 56.7319 66.6449 56.7099C66.7621 56.6745 66.8615 56.5959 66.9231 56.4901C66.9723 56.407 67.0034 56.3145 67.0144 56.2186C67.0255 56.1227 67.0162 56.0255 66.9872 55.9335C66.9383 55.7562 66.8421 55.5955 66.7089 55.4687C66.5844 55.3553 66.4503 55.2529 66.3081 55.1626L66.1078 55.0485Z" fill="#262626"/>
<path d="M40.0014 64.4853C35.1578 64.4853 30.423 63.049 26.3957 60.3581C22.3684 57.6672 19.2296 53.8424 17.376 49.3675C15.5225 44.8927 15.0375 39.9686 15.9824 35.2181C16.9273 30.4676 19.2597 26.104 22.6847 22.6791C26.1096 19.2542 30.4732 16.9218 35.2237 15.9769C39.9742 15.0319 44.8982 15.5169 49.3731 17.3705C53.848 19.224 57.6727 22.3629 60.3637 26.3902C63.0546 30.4174 64.4909 35.1522 64.4909 39.9958C64.485 46.489 61.903 52.7146 57.3116 57.306C52.7202 61.8974 46.4946 64.4794 40.0014 64.4853ZM40.0014 16.0128C35.2574 16.0128 30.62 17.4195 26.6756 20.0551C22.7311 22.6907 19.6568 26.4368 17.8414 30.8196C16.0259 35.2025 15.5509 40.0252 16.4764 44.678C17.4019 49.3308 19.6864 53.6047 23.0408 56.9591C26.3953 60.3136 30.6692 62.598 35.322 63.5235C39.9748 64.449 44.7975 63.974 49.1803 62.1586C53.5632 60.3432 57.3092 57.2688 59.9448 53.3244C62.5804 49.38 63.9872 44.7425 63.9872 39.9986C63.9798 33.6394 61.4504 27.5428 56.9538 23.0462C52.4571 18.5496 46.3605 16.0202 40.0014 16.0128Z" fill="#262626"/>
<path d="M40.0014 76.5965C19.8226 76.5965 3.40625 60.1774 3.40625 40.0014C3.40625 19.8254 19.8254 3.40628 40.0014 3.40628C60.1774 3.40628 76.5965 19.8254 76.5965 40.0014C76.5965 60.1774 60.1802 76.5965 40.0014 76.5965ZM40.0014 4.81721C33.0433 4.81721 26.2414 6.88049 20.4559 10.7462C14.6704 14.6118 10.1611 20.1062 7.49825 26.5346C4.83537 32.963 4.1385 40.0367 5.49576 46.8612C6.85302 53.6856 10.2034 59.9543 15.1234 64.8747C20.0433 69.795 26.3118 73.1459 33.1361 74.5037C39.9605 75.8615 47.0342 75.1652 53.4628 72.5028C59.8914 69.8404 65.3862 65.3316 69.2523 59.5464C73.1184 53.7612 75.1822 46.9595 75.1828 40.0014C75.1725 30.6736 71.4626 21.7308 64.8672 15.1348C58.2717 8.53879 49.3292 4.82826 40.0014 4.81721Z" fill="#262626"/>
<path d="M40.0014 80C17.9441 80 0 62.0559 0 40.0014C0 17.9469 17.9441 0 40.0014 0C62.0587 0 80 17.9441 80 40.0014C80 62.0587 62.0559 80 40.0014 80ZM40.0014 1.41093C18.7233 1.41371 1.41371 18.7233 1.41371 40.0014C1.41371 61.2794 18.7233 78.5891 40.0014 78.5891C61.2794 78.5891 78.5891 61.2767 78.5891 40.0014C78.5891 18.7261 61.2767 1.41371 40.0014 1.41371V1.41093Z" fill="#262626"/>
<path d="M40.0014 62.8907C35.4743 62.8907 31.0489 61.5483 27.2847 59.0331C23.5206 56.518 20.5868 52.9432 18.8544 48.7607C17.1219 44.5782 16.6686 39.976 17.5518 35.5359C18.435 31.0958 20.615 27.0173 23.8161 23.8161C27.0173 20.615 31.0958 18.435 35.5359 17.5518C39.976 16.6686 44.5782 17.1219 48.7607 18.8544C52.9432 20.5868 56.518 23.5206 59.0331 27.2847C61.5483 31.0489 62.8907 35.4743 62.8907 40.0014C62.8841 46.07 60.4704 51.8881 56.1792 56.1792C51.8881 60.4704 46.07 62.8841 40.0014 62.8907ZM40.0014 18.5257C35.7539 18.5257 31.6018 19.7852 28.0701 22.145C24.5385 24.5048 21.7859 27.8588 20.1605 31.783C18.535 35.7071 18.1097 40.0252 18.9384 44.191C19.767 48.3569 21.8124 52.1835 24.8158 55.1869C27.8192 58.1903 31.6458 60.2357 35.8117 61.0643C39.9775 61.893 44.2956 61.4677 48.2197 59.8423C52.1439 58.2168 55.4979 55.4642 57.8577 51.9326C60.2175 48.4009 61.477 44.2488 61.477 40.0014C61.4711 34.3072 59.2067 28.8479 55.1806 24.8213C51.1545 20.7947 45.6955 18.5296 40.0014 18.5229V18.5257Z" fill="#262626"/>
<path d="M46.3018 34.3994C46.059 34.2102 45.7741 34.0823 45.4713 34.0265C45.1686 33.9708 44.8568 33.989 44.5625 34.0794C44.8833 33.7574 45.2822 33.5244 45.7202 33.4031C45.8884 33.5121 46.0286 33.659 46.1296 33.832C46.2306 34.0051 46.2896 34.1994 46.3018 34.3994ZM48.005 32.4709C47.6543 30.6035 43.2935 31.8419 41.0978 31.046C41.0561 31.6026 41.774 32.4625 42.4614 32.7853C41.287 33.7983 40.2351 35.8465 40.0208 38.3511C39.8093 35.8465 38.7546 33.8094 37.5802 32.7853C38.2676 32.4625 38.9856 31.5887 38.9438 31.046C36.7481 31.8392 32.3873 30.6008 32.0367 32.4709C32.0085 32.6778 32.0225 32.8884 32.078 33.0898C32.1335 33.2911 32.2293 33.4792 32.3595 33.6425C32.4249 33.4697 32.5382 33.319 32.686 33.2081C32.8338 33.0973 33.0101 33.0307 33.1944 33.0163C36.2556 32.5544 38.8325 37.2686 36.5172 39.1721C36.5095 39.1785 36.5041 39.1871 36.5016 39.1968C36.4992 39.2065 36.4999 39.2167 36.5036 39.2259C36.5073 39.2352 36.5138 39.243 36.5223 39.2484C36.5307 39.2537 36.5406 39.2562 36.5505 39.2556H43.4911C43.501 39.2562 43.5109 39.2537 43.5194 39.2484C43.5278 39.243 43.5343 39.2352 43.538 39.2259C43.5418 39.2167 43.5424 39.2065 43.54 39.1968C43.5376 39.1871 43.5321 39.1785 43.5245 39.1721C41.2091 37.2658 43.7722 32.5544 46.8445 33.0163C47.0287 33.0307 47.205 33.0973 47.3529 33.2081C47.5007 33.319 47.6139 33.4697 47.6794 33.6425C47.8102 33.4795 47.9066 33.2915 47.9625 33.0901C48.0185 32.8887 48.033 32.678 48.005 32.4709ZM48.7508 28.1852C48.6951 28.0099 50.4957 28.0043 50.4957 29.1258C50.4957 29.8772 49.4187 30.239 49.4187 31.0154C49.4313 31.1599 49.4871 31.2972 49.579 31.4094C49.6708 31.5216 49.7944 31.6035 49.9335 31.6443C49.6552 30.392 50.8046 31.046 51.1135 31.2826C50.4984 29.5961 51.8843 29.6128 51.748 28.8364C51.6533 28.2965 50.4483 28.4607 50.0114 28.1852C49.2378 27.701 48.3222 25.8142 47.7183 27.701C48.8315 28.739 48.1886 30.2696 46.761 30.2696C46.7546 30.3502 46.7546 30.4311 46.761 30.5117C48.4697 30.4282 49.0652 29.1815 48.7536 28.1852H48.7508ZM28.8864 31.2826C29.1953 31.0488 30.3447 30.392 30.0664 31.6443C30.2048 31.6027 30.3276 31.5205 30.4188 31.4084C30.5101 31.2963 30.5657 31.1594 30.5784 31.0154C30.5784 30.2362 29.5015 29.8772 29.5015 29.1258C29.5015 28.0127 31.302 28.0127 31.2463 28.1852C30.9347 29.1815 31.5246 30.4282 33.2305 30.5117C33.2367 30.4311 33.2367 30.3502 33.2305 30.2696C31.8029 30.2696 31.1489 28.739 32.2732 27.701C31.6693 25.8142 30.7538 27.701 29.9801 28.1852C29.5432 28.4635 28.3382 28.2965 28.2436 28.8364C28.1156 29.6073 29.5015 29.5961 28.8864 31.2826ZM33.7231 34.3994C33.9659 34.2102 34.2508 34.0823 34.5536 34.0265C34.8564 33.9708 35.1681 33.989 35.4624 34.0794C35.1418 33.7573 34.7428 33.5243 34.3047 33.4031C34.1361 33.5118 33.9953 33.6586 33.8938 33.8316C33.7923 34.0047 33.7329 34.1992 33.7203 34.3994H33.7231ZM40.8334 23.9524L39.9986 22.945L39.1637 23.9524L39.9986 25.0127L40.8334 23.9524ZM45.5644 27.0136L44.9744 26.2984L44.3844 27.0136L44.9744 27.7149L45.5644 27.0136ZM50.3565 47.7239L49.6079 46.9364L48.8593 47.7239L49.6079 48.4169L50.3565 47.7239ZM35.6071 27.0136L35.0088 26.2817L34.4188 26.9969L35.0088 27.6982L35.6071 27.0136ZM33.9151 30.5256H36.122C37.9754 30.5256 38.8075 29.393 39.0607 28.4134H40.9447C41.198 29.3958 42.0301 30.5256 43.8835 30.5256H46.0875C46.2717 30.2813 46.4328 30.0204 46.569 29.7464C46.9168 28.8197 46.4716 28.3856 45.8232 28.3856L44.9883 29.1425L44.1534 28.3856C43.505 28.3856 43.0597 28.8169 43.4076 29.7464C43.4769 29.9024 43.5607 30.0515 43.6581 30.1917C43.1802 30.1422 42.73 29.9436 42.3713 29.6239C42.0127 29.3042 41.7638 28.8797 41.66 28.4106C41.9259 27.9974 42.1675 27.5691 42.3835 27.1277C42.9039 25.7975 42.2388 25.2548 41.2703 25.2548L40.0153 26.7242L38.7602 25.2548C37.7862 25.2548 37.121 25.8114 37.647 27.1277C37.8628 27.5692 38.1044 27.9976 38.3706 28.4106C38.2663 28.8795 38.0173 29.3038 37.6588 29.6234C37.3002 29.943 36.8502 30.1418 36.3724 30.1917C36.47 30.0516 36.5539 29.9025 36.6229 29.7464C36.9708 28.8197 36.5255 28.3856 35.8771 28.3856L35.0422 29.1425L34.2073 28.3856C33.5589 28.3856 33.1137 28.8169 33.4615 29.7464C33.5895 30.0146 33.7413 30.2707 33.9151 30.5117V30.5256ZM56.696 37.3242C54.7872 38.2172 52.6628 38.5455 50.5736 38.2704C50.607 38.1174 50.6348 37.9643 50.6571 37.8113C52.7832 37.558 54.5142 37.199 55.6162 36.5896C56.8713 35.8938 57.4223 34.2324 56.7878 32.9968C56.7828 32.9905 56.7765 32.9853 56.7693 32.9818C56.7621 32.9783 56.7541 32.9764 56.746 32.9764C56.738 32.9764 56.73 32.9783 56.7228 32.9818C56.7156 32.9853 56.7093 32.9905 56.7043 32.9968C55.1131 34.7413 53.0295 35.9612 50.7294 36.4949C50.7294 36.3168 50.7044 36.1387 50.6793 35.9634C52.3491 35.02 53.9826 33.9319 54.7591 32.9384C55.9334 31.4356 55.8249 29.5182 54.709 28.5414C54.704 28.536 54.698 28.5317 54.6913 28.5288C54.6846 28.5258 54.6773 28.5243 54.67 28.5243C54.6627 28.5243 54.6554 28.5258 54.6487 28.5288C54.642 28.5317 54.636 28.536 54.631 28.5414C54.2776 29.123 50.966 34.4495 47.3315 36.7482L47.1979 36.8317C47.1738 36.8449 47.1533 36.8639 47.1381 36.8868C47.1229 36.9098 47.1136 36.9361 47.1109 36.9635C47.1081 36.9909 47.1121 37.0185 47.1224 37.044C47.1327 37.0696 47.1491 37.0922 47.1701 37.11C47.3819 37.2961 47.552 37.5251 47.669 37.7817C47.786 38.0383 47.8474 38.3168 47.8491 38.5988C47.8333 39.0995 47.6417 39.5787 47.3079 39.9522C46.9741 40.3257 46.5193 40.5698 46.0235 40.6415C45.3453 40.7487 44.6512 40.6905 44.0004 40.4717C43.993 40.4691 43.9852 40.4682 43.9774 40.4692C43.9697 40.4702 43.9623 40.4729 43.9558 40.4772C43.9493 40.4815 43.9439 40.4873 43.9401 40.4941C43.9362 40.5009 43.934 40.5084 43.9336 40.5162V43.7193C43.9341 43.731 43.9387 43.7421 43.9466 43.7507C43.9544 43.7593 43.965 43.7649 43.9765 43.7665C43.9881 43.7682 43.9998 43.7658 44.0097 43.7597C44.0197 43.7536 44.0272 43.7443 44.031 43.7333C44.4762 42.5589 45.8093 42.3084 46.3909 42.3084C46.5996 43.5635 46.9753 44.6015 47.4623 45.1609C48.2554 46.0709 49.5495 46.057 50.1116 45.4392C50.1168 45.435 50.1211 45.4297 50.1239 45.4237C50.1268 45.4177 50.1283 45.4111 50.1283 45.4044C50.1283 45.3977 50.1268 45.3911 50.1239 45.3851C50.1211 45.3791 50.1168 45.3738 50.1116 45.3696C49.7805 45.1804 47.8853 44.0282 47.518 42.1387C47.6663 42.0884 47.8113 42.029 47.9521 41.9606C48.5615 42.9624 49.4465 43.8585 50.1617 44.1869C51.3611 44.7601 52.4576 44.4819 52.9446 43.6303C52.9484 43.6233 52.9503 43.6155 52.9502 43.6075C52.9501 43.5996 52.9481 43.5918 52.9442 43.5848C52.9403 43.5779 52.9347 43.5721 52.928 43.5678C52.9213 43.5636 52.9136 43.5612 52.9056 43.5607C52.1654 43.5023 49.889 42.8539 48.9205 41.2704C49.0319 41.1702 49.1404 41.0645 49.2406 40.9504C50.2535 41.7184 51.6867 42.3975 52.7136 42.5366C53.9158 42.698 55.2739 42.3168 55.3073 40.9281C55.3073 40.9213 55.3059 40.9145 55.3032 40.9083C55.3005 40.902 55.2966 40.8963 55.2916 40.8917C55.2867 40.887 55.2808 40.8833 55.2744 40.881C55.268 40.8786 55.2612 40.8776 55.2544 40.878C54.8286 40.903 52.0012 41.0255 49.9864 39.8762C50.056 39.7454 50.12 39.5979 50.1812 39.4726C50.1812 39.4726 53.2257 40.1878 54.6672 39.9513C56.1088 39.7148 56.9381 38.6517 56.7767 37.3298C56.7733 37.3225 56.7684 37.3161 56.7622 37.3111C56.756 37.306 56.7488 37.3024 56.741 37.3005C56.7333 37.2986 56.7252 37.2985 56.7174 37.3002C56.7096 37.3019 56.7022 37.3054 56.696 37.3103V37.3242ZM29.8243 39.5033C29.8855 39.6405 29.9504 39.7751 30.0191 39.9068C28.0043 41.0561 25.1796 40.9364 24.7511 40.9086C24.744 40.9078 24.7369 40.9085 24.7302 40.9107C24.7234 40.9129 24.7172 40.9164 24.712 40.9212C24.7067 40.9259 24.7025 40.9317 24.6997 40.9382C24.6968 40.9446 24.6954 40.9516 24.6954 40.9587C24.7288 42.3502 26.0868 42.7286 27.2891 42.5672C28.3159 42.4281 29.7491 41.7491 30.7621 40.981C30.8651 41.0923 30.9708 41.198 31.0821 41.301C30.1137 42.8817 27.8373 43.5273 27.097 43.5913C27.0891 43.5918 27.0814 43.5942 27.0747 43.5985C27.0679 43.6027 27.0624 43.6085 27.0585 43.6154C27.0546 43.6224 27.0525 43.6302 27.0525 43.6381C27.0524 43.6461 27.0543 43.6539 27.0581 43.6609C27.5451 44.4958 28.6415 44.7741 29.841 44.2175C30.5534 43.8752 31.4411 42.9819 32.0506 41.9912C32.1915 42.0594 32.3365 42.1189 32.4847 42.1693C32.1063 44.0589 30.2195 45.211 29.8911 45.4002C29.8858 45.4044 29.8816 45.4097 29.8787 45.4157C29.8758 45.4217 29.8743 45.4283 29.8743 45.435C29.8743 45.4417 29.8758 45.4483 29.8787 45.4543C29.8816 45.4603 29.8858 45.4656 29.8911 45.4698C30.4476 46.0987 31.7473 46.1099 32.5404 45.1915C33.0274 44.6349 33.4003 43.5913 33.6118 42.339C34.1962 42.339 35.5264 42.5895 35.9717 43.7639C35.9755 43.7749 35.983 43.7842 35.9929 43.7903C36.0029 43.7964 36.0146 43.7988 36.0262 43.7972C36.0377 43.7955 36.0483 43.7899 36.0561 43.7813C36.064 43.7727 36.0686 43.7616 36.0691 43.75V40.5023C36.0687 40.4945 36.0665 40.487 36.0626 40.4802C36.0587 40.4734 36.0534 40.4676 36.0469 40.4633C36.0404 40.459 36.033 40.4562 36.0252 40.4553C36.0175 40.4543 36.0097 40.4552 36.0023 40.4578C35.3515 40.6767 34.6574 40.7349 33.9791 40.6275C33.4833 40.5559 33.0286 40.3118 32.6948 39.9383C32.361 39.5648 32.1693 39.0856 32.1536 38.5849C32.1554 38.3029 32.2169 38.0245 32.3339 37.7679C32.4509 37.5113 32.6209 37.2823 32.8326 37.096C32.8537 37.0785 32.8703 37.056 32.8808 37.0306C32.8913 37.0053 32.8956 36.9777 32.8931 36.9503C32.8906 36.923 32.8816 36.8966 32.8667 36.8735C32.8518 36.8504 32.8315 36.8313 32.8075 36.8178L32.6712 36.7343C29.0395 34.4356 25.7306 29.1147 25.3744 28.5303C25.3692 28.5248 25.363 28.5205 25.356 28.5175C25.3491 28.5145 25.3416 28.513 25.3341 28.513C25.3265 28.513 25.3191 28.5145 25.3121 28.5175C25.3052 28.5205 25.2989 28.5248 25.2937 28.5303C24.1806 29.5071 24.0692 31.4245 25.2436 32.9273C26.0201 33.9208 27.6536 35.0089 29.3234 35.9523C29.3011 36.1276 29.2844 36.3029 29.276 36.4838C26.9717 35.9484 24.8848 34.7245 23.2928 32.9746C23.2879 32.9677 23.2815 32.9621 23.274 32.9582C23.2665 32.9543 23.2581 32.9523 23.2497 32.9523C23.2412 32.9523 23.2329 32.9543 23.2254 32.9582C23.2179 32.9621 23.2114 32.9677 23.2065 32.9746C22.5748 34.2102 23.1231 35.8716 24.3781 36.5673C25.4913 37.1768 27.2084 37.5357 29.3373 37.789C29.3595 37.942 29.3874 38.0951 29.4208 38.2482C27.3315 38.5231 25.2072 38.1948 23.2984 37.302C23.2913 37.2978 23.2833 37.2954 23.275 37.295C23.2668 37.2947 23.2586 37.2964 23.2511 37.2999C23.2437 37.3035 23.2373 37.3089 23.2324 37.3156C23.2275 37.3222 23.2244 37.33 23.2232 37.3382C23.0618 38.66 23.8995 39.7231 25.3327 39.9596C26.7659 40.1962 29.8243 39.4893 29.8243 39.4893V39.5033ZM49.6163 49.4326L48.5031 48.5644C48.063 48.8198 47.7418 49.239 47.6098 49.7304C46.9419 49.8222 45.1247 49.4215 45.3 49.1543C47.2925 46.3714 45.7675 44.7017 43.9364 44.7963V46.6692C43.9248 46.9699 43.7943 47.2537 43.5735 47.4583C43.3528 47.6628 43.0599 47.7714 42.7592 47.7601H41.493C40.5858 47.7601 39.9958 48.6673 39.9958 48.6673C39.9958 48.6673 39.4058 47.7601 38.4986 47.7601H37.2351C36.9344 47.7714 36.6415 47.6628 36.4208 47.4583C36.2001 47.2537 36.0696 46.9699 36.058 46.6692V44.7963C34.2268 44.7045 32.699 46.3659 34.6944 49.1543C34.8697 49.4187 32.9996 49.8417 32.123 49.7332C32.0008 49.6086 31.8548 49.5099 31.6937 49.443C31.5325 49.3761 31.3596 49.3422 31.1851 49.3436C31.0265 49.3438 30.8691 49.372 30.7204 49.4271C30.7204 49.4271 27.2779 46.1683 27.2167 46.1405L27.2445 46.0737C27.4393 45.7091 27.1416 45.3112 26.9495 45.339C27.1694 45.0746 27.1805 43.9225 25.956 43.6693C25.9922 43.9002 26.0089 44.3733 26.0089 44.3733C26.0089 44.3733 25.0655 43.8641 24.5896 44.3038C24.1722 44.7935 24.7511 45.6952 24.7511 45.6952C24.7511 45.6952 24.2668 45.6952 24.0303 45.6952C24.3809 46.8752 25.5553 46.7917 25.8086 46.5579C25.7919 46.7444 26.2176 47.0115 26.5766 46.7972L26.7353 46.7221C26.7631 46.7583 30.1193 49.9141 30.1193 49.9141C29.9573 50.1487 29.8934 50.4373 29.9412 50.7183C29.9888 50.9552 30.1062 51.1725 30.2782 51.3421C30.4503 51.5117 30.6693 51.6259 30.9068 51.6701C31.2303 51.7371 31.5671 51.6826 31.853 51.517L32.7408 52.338C32.7818 52.3759 32.83 52.405 32.8827 52.4237C32.9353 52.4424 32.9912 52.4501 33.0469 52.4465C33.0966 52.4455 33.1456 52.4345 33.191 52.4142C33.2364 52.3939 33.2772 52.3648 33.3112 52.3285C33.3452 52.2922 33.3715 52.2495 33.3887 52.2028C33.406 52.1562 33.4137 52.1066 33.4114 52.0569C33.4032 51.9687 33.3614 51.8869 33.2946 51.8287L32.3901 50.9938C33.1248 50.4818 34.494 50.12 35.6294 50.12C35.6735 50.1248 35.718 50.1168 35.7576 50.0969C35.7973 50.0771 35.8304 50.0462 35.853 50.0081C35.8756 49.9699 35.8867 49.9261 35.8851 49.8818C35.8834 49.8375 35.8691 49.7946 35.8437 49.7582C35.3289 48.5254 36.4365 47.6349 37.5802 48.3668C38.0784 48.684 38.5876 49.3074 38.9717 50.3482C37.0932 50.8018 34.7361 52.0486 34.2574 53.4094C34.0738 53.9354 34.6804 54.6506 35.4179 54.8008C35.4308 54.8033 35.4442 54.8006 35.4551 54.7933C35.466 54.786 35.4737 54.7747 35.4763 54.7619C35.8604 52.7304 38.0561 51.2165 39.1999 50.9577L39.2973 51.2137C38.0533 51.7981 36.8455 53.0337 36.5144 54.5031C36.3557 55.1765 37.1099 55.7832 37.7305 55.9474C37.7396 55.9502 37.7492 55.9504 37.7584 55.9479C37.7676 55.9454 37.7759 55.9404 37.7823 55.9334C37.7887 55.9264 37.793 55.9177 37.7947 55.9084C37.7963 55.899 37.7953 55.8894 37.7917 55.8806C37.9086 54.0244 38.7351 52.4465 39.4615 51.7285C39.4809 51.8677 39.4976 52.0068 39.506 52.1515C39.506 52.1515 38.749 54.2471 38.749 55.7693C38.749 56.4817 39.8121 56.9771 39.968 57.0466C40.1628 56.9771 41.2258 56.4901 41.2258 55.7693C41.2258 54.2387 40.4689 52.1515 40.4689 52.1515C40.4689 52.0096 40.4939 51.8732 40.5162 51.7285C41.2536 52.4465 42.0774 54.0216 42.1859 55.8806C42.1864 55.8881 42.1886 55.8953 42.1923 55.9018C42.196 55.9083 42.2011 55.9139 42.2073 55.9182C42.2134 55.9224 42.2204 55.9253 42.2278 55.9265C42.2352 55.9277 42.2428 55.9272 42.2499 55.9251C42.8733 55.7582 43.6247 55.1543 43.4688 54.4808C43.1238 53.0114 41.9188 51.7758 40.6859 51.1914L40.7806 50.9354C41.9243 51.1914 44.12 52.7081 44.5041 54.7396C44.5068 54.7525 44.5144 54.7638 44.5253 54.7711C44.5363 54.7783 44.5496 54.781 44.5625 54.7786C45.3 54.6339 45.9067 53.9187 45.723 53.3871C45.2471 52.0263 42.8872 50.7796 41.0115 50.3259C41.3956 49.2851 41.9021 48.6562 42.403 48.3445C43.5468 47.6182 44.6544 48.5115 44.1395 49.736C44.1211 49.7726 44.1128 49.8135 44.1154 49.8545C44.118 49.8954 44.1315 49.9349 44.1544 49.969C44.1774 50.003 44.209 50.0302 44.246 50.048C44.283 50.0657 44.324 50.0733 44.3649 50.0699C45.6506 50.0699 47.2341 50.5319 47.8602 51.1525C48.0774 51.4671 48.3759 51.7168 48.7239 51.8751C49.0718 52.0334 49.4563 52.0943 49.8361 52.0513C50.2839 52.0181 50.7075 51.8355 51.0391 51.5327C51.3706 51.2299 51.5909 50.8245 51.6645 50.3816C51.7047 50.0171 51.6367 49.6487 51.4689 49.3226C51.3011 48.9964 51.041 48.7269 50.7211 48.5477L49.6163 49.4326ZM41.4429 43.8362C41.8381 43.6915 42.4586 43.8084 42.4364 44.3761C42.4364 44.5041 42.6117 44.5041 42.6256 44.3761C42.7425 43.5273 42.1664 43.2796 41.5625 43.3798C41.4874 43.0876 41.4262 42.8232 41.3566 42.5784C41.301 42.3724 41.2815 41.9884 41.518 41.9884C41.646 41.9884 41.5959 42.3474 41.582 42.5004C41.5681 42.6535 41.621 42.7175 41.7295 42.7203C41.8381 42.7231 41.8854 42.6368 41.9355 42.5784C42.2805 42.1887 42.3612 41.5876 41.9577 41.2954C41.6182 41.0505 40.7694 41.2342 40.5384 41.5737C40.4705 41.4129 40.3764 41.2643 40.2602 41.134C40.1822 41.0422 40.16 40.9782 40.2602 40.8975C40.3721 40.8121 40.4461 40.6862 40.4661 40.5468C40.4662 40.5081 40.4583 40.4697 40.4428 40.4342C40.4273 40.3987 40.4045 40.3668 40.3759 40.3406C40.3474 40.3144 40.3137 40.2945 40.277 40.2821C40.2402 40.2697 40.2013 40.2651 40.1628 40.2685C40.11 40.2677 40.0577 40.2777 40.0091 40.2981C39.9605 40.3185 39.9166 40.3487 39.8802 40.3869C39.8439 40.425 39.8158 40.4704 39.7979 40.5199C39.7799 40.5695 39.7725 40.6222 39.7759 40.6749C39.7767 40.7454 39.7958 40.8144 39.8316 40.8752C39.6346 40.8563 39.4359 40.8656 39.2416 40.903L41.4679 46.9809C42.1052 46.6692 42.5811 46.1739 42.5811 45.6395C42.5811 45.1859 41.9104 45.3362 41.5848 45.6896C41.4791 45.1164 41.3872 44.5765 41.2843 44.0561C41.2509 43.9141 41.326 43.8641 41.4429 43.8223V43.8362ZM38.2954 39.7064L38.763 41.0005C38.3622 41.0951 37.7194 41.3845 37.7194 41.7713C37.7194 42.2834 38.6294 42.6062 39.1553 42.5756C39.1422 42.6315 39.1432 42.6897 39.1583 42.7451C39.1733 42.8005 39.202 42.8513 39.2416 42.8928C39.0015 42.8943 38.7675 42.9691 38.5709 43.1071C38.2926 42.8483 37.8557 42.7537 37.647 42.9123C37.4383 43.0709 37.4327 43.3409 37.647 43.6442C37.7311 43.732 37.7811 43.8469 37.7883 43.9682C37.7954 44.0896 37.7591 44.2095 37.686 44.3065C38.3205 44.3065 38.0867 43.4717 38.3344 43.4717C38.3024 43.659 38.3226 43.8516 38.3928 44.0282C38.4191 44.0863 38.4298 44.1501 38.424 44.2136C38.4181 44.277 38.3959 44.3378 38.3594 44.39C38.0414 44.9181 37.8757 45.524 37.8808 46.1405C37.6721 46.1405 37.5663 46.0876 37.6414 45.8065C37.6693 45.7008 37.6025 45.6256 37.5162 45.7564C37.4302 45.9069 37.3815 46.0758 37.3743 46.249C37.3743 46.8501 38.0951 46.9726 38.3706 46.8445C39.1665 47.6126 40.7305 47.4011 41.2536 47.1507L38.5014 39.6368C38.5025 39.6192 38.4993 39.6015 38.4922 39.5852C38.4851 39.569 38.4742 39.5547 38.4605 39.5435C38.4468 39.5324 38.4306 39.5246 38.4132 39.521C38.3959 39.5173 38.3779 39.5179 38.3608 39.5225C38.3438 39.5272 38.328 39.5359 38.315 39.5479C38.3019 39.5599 38.2919 39.5748 38.2858 39.5914C38.2797 39.608 38.2776 39.6259 38.2798 39.6434C38.2819 39.661 38.2883 39.6778 38.2982 39.6925L38.2954 39.7064ZM38.2008 45.9011C38.1451 45.5922 38.5765 45.0384 39.1275 44.5097C39.0106 44.8575 39.083 45.4559 39.314 45.6646C38.9281 45.646 38.5441 45.7295 38.2008 45.9067V45.9011Z" fill="#262626"/>
<path d="M10.7949 36.0246C11.5818 36.0246 12.2197 35.3867 12.2197 34.5998C12.2197 33.8129 11.5818 33.1749 10.7949 33.1749C10.008 33.1749 9.37006 33.8129 9.37006 34.5998C9.37006 35.3867 10.008 36.0246 10.7949 36.0246Z" fill="#262626"/>
<path d="M69.2051 36.0246C69.992 36.0246 70.63 35.3867 70.63 34.5998C70.63 33.8129 69.992 33.1749 69.2051 33.1749C68.4182 33.1749 67.7803 33.8129 67.7803 34.5998C67.7803 35.3867 68.4182 36.0246 69.2051 36.0246Z" fill="#262626"/>
</g>
<defs>
<clipPath id="clip0">
<rect width="80" height="80" fill="white"/>
</clipPath>
</defs>
</svg>
