<svg width="80" height="80" viewBox="0 0 80 80" fill="none" xmlns="http://www.w3.org/2000/svg">
<g clip-path="url(#clip0)">
<path d="M40.0014 65.1866C35.1587 65.1866 30.4247 63.7506 26.398 61.0601C22.3714 58.3696 19.2331 54.5455 17.3798 50.0714C15.5266 45.5973 15.0417 40.6741 15.9865 35.9244C16.9313 31.1746 19.2633 26.8118 22.6876 23.3874C26.112 19.9631 30.4748 17.6311 35.2245 16.6863C39.9743 15.7415 44.8975 16.2264 49.3716 18.0796C53.8457 19.9329 57.6698 23.0712 60.3603 27.0978C63.0508 31.1245 64.4868 35.8585 64.4868 40.7012C64.4794 47.1929 61.8974 53.4166 57.3071 58.0069C52.7168 62.5972 46.4931 65.1793 40.0014 65.1866ZM40.0014 16.7149C35.259 16.7149 30.6231 18.1212 26.68 20.7559C22.7368 23.3906 19.6635 27.1355 17.8487 31.5169C16.0338 35.8983 15.559 40.7195 16.4842 45.3707C17.4094 50.022 19.693 54.2945 23.0464 57.6478C26.3998 61.0012 30.6723 63.2849 35.3235 64.2101C39.9748 65.1353 44.796 64.6605 49.1774 62.8456C53.5588 61.0308 57.3036 57.9575 59.9384 54.0143C62.5731 50.0711 63.9794 45.4353 63.9794 40.6929C63.9698 34.3364 61.4405 28.2431 56.9458 23.7485C52.4511 19.2538 46.3578 16.7245 40.0014 16.7149Z" fill="#262626"/>
<path d="M40.0014 63.589C35.4741 63.589 31.0484 62.2465 27.2841 59.7312C23.5197 57.216 20.5858 53.641 18.8532 49.4583C17.1207 45.2755 16.6674 40.673 17.5506 36.2327C18.4339 31.7923 20.614 27.7136 23.8153 24.5123C27.0166 21.311 31.0953 19.1309 35.5357 18.2476C39.976 17.3644 44.5785 17.8177 48.7612 19.5503C52.944 21.2828 56.519 24.2167 59.0342 27.9811C61.5495 31.7454 62.892 36.1711 62.892 40.6984C62.8853 46.7673 60.4715 52.5858 56.1802 56.8772C51.8888 61.1685 46.0703 63.5824 40.0014 63.589ZM40.0014 19.2242C35.7553 19.2242 31.6045 20.4833 28.074 22.8423C24.5435 25.2013 21.7919 28.5543 20.1669 32.4771C18.542 36.4 18.1169 40.7166 18.9453 44.8812C19.7736 49.0457 21.8183 52.871 24.8208 55.8735C27.8232 58.8759 31.6486 60.9206 35.8131 61.749C39.9776 62.5773 44.2942 62.1522 48.2171 60.5273C52.14 58.9024 55.4929 56.1507 57.8519 52.6202C60.2109 49.0897 61.47 44.9389 61.47 40.6928C61.4612 35.0017 59.1965 29.5462 55.1722 25.522C51.148 21.4977 45.6925 19.233 40.0014 19.2242Z" fill="#262626"/>
<path d="M40.0014 76.5957C19.8237 76.5957 3.4071 60.1791 3.4071 40.0014C3.4071 19.8236 19.8209 3.4043 40.0014 3.4043C60.1819 3.4043 76.5957 19.8208 76.5957 40.0014C76.5957 60.1819 60.1791 76.5957 40.0014 76.5957ZM40.0014 4.81788C33.0426 4.81733 26.24 6.88034 20.4537 10.746C14.6675 14.6117 10.1575 20.1064 7.4941 26.5353C4.83072 32.9642 4.13357 40.0385 5.49081 46.8636C6.84806 53.6887 10.1987 59.9581 15.1191 64.8789C20.0395 69.7997 26.3086 73.1508 33.1336 74.5086C39.9586 75.8664 47.033 75.1698 53.4621 72.507C59.8912 69.8441 65.3863 65.3345 69.2524 59.5486C73.1186 53.7626 75.1821 46.9601 75.1821 40.0014C75.1718 30.6738 71.462 21.7312 64.8667 15.1353C58.2713 8.53942 49.329 4.82895 40.0014 4.81788Z" fill="#262626"/>
<path d="M40.0014 80C17.9444 80 0 62.0444 0 40.0014C0 17.9584 17.9444 0 40.0014 0C62.0583 0 80 17.9444 80 40.0014C80 62.0583 62.0444 80 40.0014 80ZM40.0014 1.4108C18.7251 1.4108 1.41359 18.7223 1.41359 39.9986C1.41359 61.2749 18.7251 78.5864 40.0014 78.5864C61.2777 78.5864 78.5892 61.2749 78.5892 39.9986C78.5892 18.7223 61.2777 1.41359 40.0014 1.41359V1.4108Z" fill="#262626"/>
<path d="M10.5754 38.2616C11.3622 38.2616 12.0001 37.6237 12.0001 36.8368C12.0001 36.05 11.3622 35.4121 10.5754 35.4121C9.78851 35.4121 9.15063 36.05 9.15063 36.8368C9.15063 37.6237 9.78851 38.2616 10.5754 38.2616Z" fill="#262626"/>
<path d="M68.9841 38.2616C69.7709 38.2616 70.4088 37.6237 70.4088 36.8368C70.4088 36.05 69.7709 35.4121 68.9841 35.4121C68.1972 35.4121 67.5593 36.05 67.5593 36.8368C67.5593 37.6237 68.1972 38.2616 68.9841 38.2616Z" fill="#262626"/>
<path d="M40.0181 44.7886V45.2654C40.0832 45.1223 40.1783 44.9949 40.297 44.8918C40.3928 44.7981 40.5068 44.725 40.632 44.6771C40.7571 44.6291 40.8908 44.6073 41.0247 44.613C41.1704 44.6032 41.3165 44.6253 41.4527 44.6778C41.589 44.7303 41.7122 44.8119 41.8137 44.9169C41.9323 45.0468 42.0268 45.197 42.0925 45.3602C42.1908 45.1729 42.3265 45.0078 42.4912 44.8751C42.6004 44.7811 42.727 44.7096 42.8638 44.6646C43.0007 44.6197 43.145 44.6021 43.2886 44.613C43.4666 44.6013 43.6448 44.6342 43.8069 44.7087C43.969 44.7832 44.11 44.8969 44.2171 45.0396C44.4959 45.4132 44.5461 45.9318 44.5461 46.5033V49.1827H43.3639V46.5898C43.3658 46.3811 43.3547 46.1725 43.3305 45.9652C43.2942 45.7227 43.2078 45.4968 42.9039 45.4968C42.8091 45.4968 42.5219 45.5247 42.3908 45.9485C42.3359 46.1786 42.3097 46.4146 42.3128 46.6511V49.1827H41.1334V46.5898C41.1334 46.5033 41.1334 46.0879 41.0999 45.9206C41.0386 45.5916 40.8574 45.494 40.6566 45.494C40.5421 45.5049 40.4337 45.5509 40.3464 45.6258C40.259 45.7007 40.197 45.8007 40.1687 45.9123C40.0983 46.1519 40.069 46.4017 40.0823 46.6511V49.1827H38.9029V44.7775L40.0181 44.7886Z" fill="#262626"/>
<path d="M46.8853 44.7886V45.2654C46.9504 45.1223 47.0454 44.9949 47.1641 44.8918C47.2599 44.7981 47.3739 44.725 47.4991 44.6771C47.6243 44.6291 47.7579 44.6073 47.8918 44.613C48.0375 44.6032 48.1836 44.6253 48.3199 44.6778C48.4562 44.7303 48.5794 44.8119 48.6809 44.9169C48.7995 45.0468 48.8939 45.197 48.9597 45.3602C49.0579 45.1729 49.1937 45.0078 49.3584 44.8751C49.4675 44.7811 49.5942 44.7096 49.731 44.6646C49.8678 44.6197 50.0122 44.6021 50.1558 44.613C50.3338 44.6013 50.5119 44.6342 50.674 44.7087C50.8361 44.7832 50.9771 44.8969 51.0842 45.0396C51.363 45.4132 51.4132 45.9318 51.4132 46.5033V49.1827H50.2338V46.5898C50.2358 46.3811 50.2246 46.1725 50.2004 45.9652C50.1641 45.7227 50.0777 45.4968 49.7738 45.4968C49.679 45.4968 49.3918 45.5247 49.2608 45.9485C49.2058 46.1786 49.1796 46.4146 49.1827 46.6511V49.1827H48.0033V46.5898C48.0033 46.5033 48.0033 46.0879 47.9699 45.9206C47.9085 45.5916 47.7273 45.494 47.5266 45.494C47.412 45.5049 47.3037 45.5509 47.2163 45.6258C47.1289 45.7007 47.0669 45.8007 47.0386 45.9123C46.9682 46.1519 46.939 46.4017 46.9522 46.6511V49.1827H45.7728V44.7775L46.8853 44.7886Z" fill="#262626"/>
<path d="M28.938 30.887H41.4122V33.8703C40.7374 34.6453 40.1169 35.466 39.5553 36.3266C38.6065 37.859 37.809 39.48 37.1742 41.1668C36.6 42.8142 36.1881 44.5137 35.9446 46.2412C35.8136 47.2868 35.7634 48.4717 35.7355 49.1967H31.7903C31.8157 48.2034 31.9295 47.2143 32.1305 46.2412C32.3811 44.7423 32.7752 43.2708 33.3071 41.8471C33.8797 40.3434 34.5793 38.8911 35.3982 37.506C36.0621 36.4005 36.8146 35.3505 37.6482 34.3666V34.0877H28.938V30.887Z" fill="#262626"/>
<path d="M26.0635 13.0987L27.9511 16.1043L26.8358 16.8041L26.4539 16.3747C26.4185 16.6953 26.3043 17.0022 26.1213 17.2679C25.9384 17.5335 25.6925 17.7497 25.4055 17.897C25.1204 18.1057 24.7945 18.2518 24.449 18.3258C24.1036 18.3998 23.7464 18.4 23.4009 18.3264C22.7038 18.1619 21.9789 17.6266 21.3599 16.6368C20.6378 15.4881 20.6044 14.5597 20.7047 13.9658C20.7669 13.5706 20.9179 13.1947 21.1463 12.8663C21.3748 12.5379 21.6747 12.2656 22.0235 12.0698C22.5811 11.7102 23.3423 11.4258 24.0115 11.5317C24.6687 11.6726 25.2552 12.0409 25.6676 12.5717L24.0979 13.5587C23.9806 13.4051 23.822 13.2881 23.6406 13.2213C23.5192 13.1884 23.3919 13.1827 23.2679 13.2049C23.144 13.2271 23.0266 13.2765 22.9241 13.3496C22.7989 13.4216 22.6915 13.521 22.6099 13.6402C22.5284 13.7594 22.4747 13.8955 22.4529 14.0383C22.3748 14.5485 22.701 15.1535 22.9074 15.4658C23.1137 15.7781 23.5235 16.3803 24.0867 16.5225C24.2228 16.5568 24.3647 16.5609 24.5025 16.5344C24.6402 16.5079 24.7705 16.4515 24.8841 16.3692C25.0944 16.2514 25.2504 16.0564 25.3191 15.8255C25.3791 15.6237 25.3905 15.4107 25.3526 15.2037L24.6834 15.6219L23.9362 14.4342L26.0635 13.0987Z" fill="#262626"/>
<path d="M32.8889 7.82629L34.3973 14.0271L32.8025 14.4147L31.2941 8.21106L32.8889 7.82629Z" fill="#262626"/>
<path d="M39.6194 10.2826C39.6648 9.89165 39.8304 9.52439 40.0934 9.23152C40.5897 8.72129 41.3063 8.67389 41.8527 8.71571C42.2793 8.7408 43.0628 8.81608 43.5256 9.35419C43.808 9.74157 43.9298 10.223 43.8658 10.6981L43.7375 12.831C43.7122 13.0089 43.7236 13.1902 43.771 13.3635C43.7888 13.4125 43.8163 13.4575 43.8517 13.4958C43.8871 13.5341 43.9298 13.565 43.9773 13.5866V13.6507L42.2096 13.5448L42.1399 13.0373H42.1204C41.9746 13.21 41.7953 13.3513 41.5934 13.4528C41.2833 13.5889 40.9436 13.6436 40.6064 13.6117C40.4187 13.6167 40.232 13.582 40.0586 13.5099C39.8851 13.4379 39.7288 13.33 39.5999 13.1935C39.4872 13.0503 39.4044 12.886 39.3565 12.7102C39.3086 12.5344 39.2965 12.3507 39.3211 12.1702C39.3129 11.8484 39.431 11.5362 39.6501 11.3003C39.9637 11.0181 40.3713 10.863 40.7932 10.8654L41.3341 10.8347C41.7273 10.8124 41.967 10.7901 42.0925 10.6786C42.1393 10.632 42.1759 10.5763 42.1999 10.5148C42.2239 10.4534 42.2348 10.3876 42.2319 10.3217C42.2431 10.2634 42.2417 10.2033 42.2278 10.1456C42.2138 10.0879 42.1877 10.0339 42.1511 9.9871C42.0979 9.93596 42.0349 9.89623 41.9659 9.87034C41.8968 9.84444 41.8232 9.83294 41.7496 9.83654C41.6719 9.82072 41.5916 9.82332 41.5151 9.84414C41.4386 9.86496 41.368 9.90342 41.309 9.95643C41.2026 10.0739 41.1448 10.2273 41.1473 10.3858L39.6194 10.2826ZM42.165 11.4397C42.0027 11.5447 41.8145 11.6026 41.6213 11.607C41.4192 11.6017 41.2218 11.6679 41.0637 11.7938C41.0255 11.8297 40.9947 11.8729 40.9732 11.9207C40.9516 11.9686 40.9398 12.0202 40.9382 12.0726C40.9328 12.1287 40.9391 12.1852 40.9568 12.2387C40.9745 12.2921 41.0032 12.3413 41.041 12.383C41.0788 12.4248 41.1249 12.4582 41.1763 12.481C41.2277 12.5039 41.2834 12.5158 41.3397 12.5159C41.4332 12.5274 41.528 12.5172 41.6169 12.4863C41.7059 12.4554 41.7865 12.4045 41.8527 12.3375C41.9541 12.2338 42.0325 12.11 42.083 11.9741C42.1334 11.8382 42.1547 11.6931 42.1455 11.5485L42.165 11.4397Z" fill="#262626"/>
<path d="M50.4764 13.9044C50.3899 14.0589 50.3679 14.2413 50.4151 14.4119C50.4501 14.4872 50.5004 14.5543 50.5628 14.609C50.6252 14.6638 50.6983 14.7049 50.7775 14.7297C50.9139 14.8004 51.0689 14.8268 51.2209 14.805C51.2841 14.7905 51.3426 14.7605 51.3913 14.7176C51.44 14.6748 51.4772 14.6205 51.4997 14.5597C51.5263 14.4978 51.533 14.4291 51.519 14.3632C51.5051 14.2974 51.471 14.2374 51.4216 14.1916C51.2777 14.057 51.1175 13.9409 50.9448 13.8459L50.5852 13.6201C50.2197 13.4332 49.918 13.1421 49.7181 12.7836C49.6545 12.6313 49.6243 12.4671 49.6296 12.3021C49.6349 12.1371 49.6755 11.9752 49.7487 11.8273C49.8243 11.6044 49.9545 11.4039 50.1274 11.2442C50.3002 11.0845 50.5103 10.9705 50.7385 10.9128C51.2609 10.8148 51.801 10.8892 52.2776 11.1247C52.7459 11.2828 53.1539 11.5817 53.4458 11.9806C53.5491 12.1751 53.6093 12.3896 53.6223 12.6095C53.6353 12.8294 53.6008 13.0495 53.5211 13.2548L52.2162 12.7139C52.2802 12.5788 52.2912 12.4246 52.2469 12.2817C52.2139 12.2091 52.1657 12.1444 52.1056 12.092C52.0455 12.0395 51.9748 12.0006 51.8984 11.9778C51.7715 11.9117 51.6252 11.8929 51.4857 11.9249C51.4287 11.9402 51.3762 11.969 51.3326 12.0088C51.2889 12.0485 51.2554 12.0982 51.2348 12.1535C51.2099 12.2074 51.2016 12.2675 51.2111 12.3261C51.2205 12.3847 51.2472 12.4391 51.2878 12.4825C51.42 12.618 51.5735 12.7311 51.7422 12.8171L52.2302 13.1182C52.5807 13.3045 52.8629 13.5974 53.0359 13.9546C53.153 14.2805 53.14 14.639 52.9997 14.9556C52.9197 15.1838 52.7887 15.3908 52.6167 15.5609C52.4447 15.7309 52.2362 15.8595 52.0071 15.937C51.4662 16.0987 50.7999 15.8729 50.3621 15.6916C49.679 15.4128 49.1242 15.081 48.9206 14.4732C48.8032 14.0819 48.8259 13.6619 48.9848 13.2855L50.4764 13.9044Z" fill="#262626"/>
<path d="M58.5536 18.7C58.4235 18.8194 58.3437 18.9839 58.3306 19.1601C58.3399 19.2427 58.3663 19.3226 58.4081 19.3946C58.4498 19.4666 58.506 19.5291 58.5732 19.5783C58.679 19.6881 58.8164 19.7621 58.9663 19.7902C59.0323 19.7996 59.0997 19.7918 59.1618 19.7673C59.2239 19.7429 59.2785 19.7027 59.3204 19.6508C59.3656 19.6014 59.3943 19.539 59.4023 19.4725C59.4103 19.406 59.3972 19.3387 59.365 19.2799C59.2733 19.1049 59.1589 18.9427 59.0248 18.7976L58.746 18.4686C58.4573 18.1721 58.2633 17.7966 58.1884 17.3896C58.1786 17.2251 58.2037 17.0604 58.2618 16.9062C58.3199 16.752 58.4099 16.6117 58.5258 16.4946C58.6678 16.3063 58.8547 16.1566 59.0695 16.0592C59.2843 15.9617 59.5201 15.9197 59.7553 15.937C60.2831 16.0126 60.7722 16.2571 61.1494 16.634C61.5447 16.9335 61.8371 17.3486 61.9858 17.8218C62.0202 18.0391 62.0076 18.2613 61.9489 18.4734C61.8902 18.6854 61.7868 18.8825 61.6457 19.0513L60.5806 18.1173C60.6862 18.011 60.7471 17.8684 60.7507 17.7186C60.7424 17.6392 60.7173 17.5626 60.6769 17.4938C60.6365 17.425 60.5818 17.3657 60.5165 17.3199C60.4171 17.2175 60.2848 17.1533 60.1429 17.1387C60.0833 17.1348 60.0236 17.1452 59.9689 17.1689C59.9141 17.1927 59.8657 17.2291 59.8278 17.2753C59.7883 17.3186 59.762 17.3724 59.7522 17.4302C59.7423 17.488 59.7492 17.5475 59.7721 17.6015C59.8516 17.7789 59.9599 17.9419 60.0927 18.0838L60.4552 18.5272C60.7286 18.8193 60.9007 19.1918 60.9459 19.5894C60.9517 19.9365 60.8228 20.2723 60.5862 20.5262C60.4363 20.7149 60.2454 20.8669 60.028 20.9708C59.8106 21.0746 59.5725 21.1276 59.3315 21.1257C58.7739 21.1034 58.2163 20.674 57.8538 20.3617C57.2962 19.8738 56.878 19.3859 56.8808 18.7446C56.8947 18.3322 57.0525 17.9377 57.3269 17.6294L58.5536 18.7Z" fill="#262626"/>
<path d="M23.1611 65.7638L21.2679 67.5761L20.0077 66.7229L21.4018 62.0751L22.6955 62.9478L21.7782 65.5407H21.7921L23.7438 63.6476L24.9064 64.431L23.886 66.9404H23.8999L25.9241 65.0974L27.2318 65.9812L23.4873 69.0482L22.2466 68.2118L23.2029 65.7666L23.1611 65.7638Z" fill="#262626"/>
<path d="M33.3433 68.0473L32.111 72.5083L30.5385 72.0817L31.7708 67.6207L33.3433 68.0473ZM32.2281 65.9227L33.8089 66.3577L33.4911 67.5203L31.9102 67.0826L32.2281 65.9227Z" fill="#262626"/>
<path d="M41.8527 73.4033L41.8388 72.9572H41.8025C41.66 73.1626 41.4694 73.33 41.2473 73.4447C41.0252 73.5594 40.7783 73.6179 40.5284 73.6152C40.2757 73.6369 40.0213 73.5999 39.7853 73.507C39.5493 73.4142 39.3379 73.268 39.1678 73.0799C38.7571 72.5838 38.534 71.959 38.5376 71.315C38.4903 70.612 38.6744 69.9128 39.0618 69.3243C39.217 69.1144 39.4197 68.9444 39.6533 68.8281C39.8869 68.7118 40.1447 68.6525 40.4057 68.6551C40.6338 68.6275 40.8652 68.6604 41.0766 68.7504C41.288 68.8405 41.472 68.9845 41.6102 69.1681L41.5293 67.0296L43.2245 66.9655L43.4587 73.342L41.8527 73.4033ZM41.4958 70.1496C41.4253 70.0737 41.3384 70.0147 41.2419 69.9771C41.1453 69.9394 41.0415 69.9241 40.9382 69.9321C40.847 69.9316 40.7569 69.952 40.6748 69.9916C40.5927 70.0312 40.5206 70.0891 40.4642 70.1607C40.2622 70.4632 40.1788 70.8295 40.23 71.1895C40.23 71.3429 40.283 71.9256 40.5674 72.1989C40.6336 72.2623 40.7119 72.3119 40.7976 72.3444C40.8834 72.377 40.9748 72.392 41.0665 72.3884C41.1621 72.3907 41.2568 72.3696 41.3423 72.3268C41.4279 72.284 41.5016 72.221 41.5572 72.1431C41.7567 71.8262 41.8377 71.4489 41.7858 71.078C41.8031 70.7447 41.7002 70.4163 41.4958 70.1524V70.1496Z" fill="#262626"/>
<path d="M48.1204 67.6904L48.8175 67.4311L48.3463 66.1513L49.8825 65.5937L50.3565 66.8762L51.2264 66.5528L51.6669 67.735L50.7942 68.0556L51.3268 69.4915C51.4188 69.748 51.5052 69.8707 51.6056 69.9237C51.7371 69.9715 51.882 69.9665 52.0099 69.9097C52.1474 69.8574 52.2769 69.7861 52.3946 69.6978L52.8435 70.9023C52.5512 71.1016 52.2357 71.2645 51.9039 71.3874C51.5889 71.5045 51.0452 71.6662 50.6353 71.4488C50.3023 71.2178 50.0591 70.879 49.9467 70.4896L49.2608 68.6244L48.5582 68.8837L48.1204 67.6904Z" fill="#262626"/>
<path d="M57.2042 63.55L57.2349 63.5249C57.2303 63.2942 57.2749 63.0651 57.3659 62.853C57.4833 62.5943 57.6647 62.3698 57.8929 62.2006C58.0493 62.0567 58.2348 61.9482 58.4369 61.8823C58.6389 61.8164 58.8527 61.7946 59.0639 61.8186C59.6076 61.9022 59.9645 62.2786 60.3604 62.7805L62.1002 64.9803L60.8148 65.998L59.2619 64.0463C59.1303 63.8512 58.9495 63.6944 58.7377 63.5918C58.6542 63.5602 58.5637 63.5517 58.4758 63.5675C58.3879 63.5832 58.3059 63.6224 58.2386 63.6811C58.1576 63.7392 58.0937 63.8179 58.0535 63.9091C58.0133 64.0003 57.9983 64.1007 58.01 64.1996C58.0411 64.4319 58.1378 64.6505 58.2888 64.8298L59.8334 66.7815L58.5481 67.7991L54.5889 62.8L55.8185 61.8269L57.2042 63.55Z" fill="#262626"/>
</g>
<defs>
<clipPath id="clip0">
<rect width="80" height="80" fill="white"/>
</clipPath>
</defs>
</svg>
