<svg width="94" height="48" viewBox="0 0 94 48" fill="none" xmlns="http://www.w3.org/2000/svg">
<path d="M19.036 7.23735e-06L23.5205 7.62939e-06L23.5205 21.865L19.036 21.865L19.036 12.2171L15.9952 12.2171L15.9952 21.865L11.5107 21.865L11.5107 6.57946e-06L15.9952 6.97151e-06L15.9952 9.10117L19.036 9.10117L19.036 7.23735e-06Z" fill="#262626"/>
<path d="M32.5395 22.1544C30.374 22.1544 28.8935 21.7578 28.0979 20.9645C27.3022 20.1712 26.9079 18.7014 26.9151 16.5551L26.9151 10.6556C26.9151 8.51159 27.3141 7.0382 28.1121 6.2354C28.9102 5.4326 30.386 5.0324 32.5395 5.03478C34.712 5.03478 36.1949 5.43141 36.9882 6.22468C37.7815 7.01795 38.1781 8.49134 38.1781 10.6448L38.1781 16.5551C38.1781 18.699 37.7815 20.1724 36.9882 20.9752C36.1949 21.778 34.712 22.1711 32.5395 22.1544ZM31.6461 18.6633C31.8859 18.8947 32.2062 19.0241 32.5395 19.0241C32.8727 19.0241 33.193 18.8947 33.4328 18.6633C33.6397 18.2794 33.7304 17.8436 33.6936 17.4091L33.6936 9.76581C33.7304 9.33127 33.6397 8.89543 33.4328 8.51159C33.193 8.28015 32.8727 8.15082 32.5395 8.15082C32.2062 8.15082 31.8859 8.28015 31.6461 8.51159C31.4374 8.89478 31.3466 9.33116 31.3853 9.76581L31.3853 17.4091C31.351 17.8452 31.4467 18.2816 31.6604 18.6633L31.6461 18.6633Z" fill="#262626"/>
<path d="M46.5718 22.1544C44.4087 22.1544 42.9282 21.7578 42.1302 20.9645C41.3321 20.1712 40.9331 18.7014 40.9331 16.5551L40.9331 10.6556C40.9331 8.51158 41.3321 7.0382 42.1302 6.2354C42.9282 5.4326 44.4087 5.03597 46.5718 5.0455C48.7467 5.0455 50.2308 5.44213 51.0241 6.2354C51.8174 7.02867 52.214 8.50206 52.214 10.6556L52.214 16.5551C52.214 18.699 51.8174 20.1724 51.0241 20.9752C50.2308 21.778 48.7467 22.1711 46.5718 22.1544ZM45.6784 18.6633C45.9187 18.8939 46.2388 19.0227 46.5718 19.0227C46.9048 19.0227 47.2249 18.8939 47.4651 18.6633C47.6706 18.279 47.76 17.8432 47.7224 17.4091L47.7224 9.76581C47.76 9.33163 47.6706 8.89587 47.4651 8.51158C47.2249 8.28097 46.9048 8.1522 46.5718 8.1522C46.2388 8.1522 45.9187 8.28097 45.6784 8.51158C45.4667 8.89401 45.3711 9.32987 45.4033 9.76581L45.4033 17.4091C45.3711 17.845 45.4667 18.2809 45.6784 18.6633Z" fill="#262626"/>
<path d="M66.9395 21.865L62.1977 21.865L59.7464 14.5969L59.7464 21.865L55.2619 21.865L55.2619 6.60851e-06L59.7571 7.0015e-06L59.7571 12.2885L62.0655 5.32421L66.7679 5.32421L63.7807 13.3855L66.9395 21.865Z" fill="#262626"/>
<path d="M74.1111 5.03478C76.1645 5.03478 77.5748 5.4338 78.3419 6.23183C79.1089 7.02987 79.4913 8.50087 79.4889 10.6448L79.4889 21.865L75.8263 21.865L75.5654 20.3356C75.2887 20.9004 74.8542 21.3728 74.3145 21.6956C73.7748 22.0184 73.153 22.1778 72.5245 22.1544C71.9536 22.1731 71.3861 22.0582 70.8675 21.8187C70.3488 21.5792 69.8933 21.2219 69.5373 20.7751C68.7869 19.8675 68.4117 18.6442 68.4117 17.1053C68.4117 15.4211 68.819 14.1836 69.6338 13.3927C70.4485 12.6018 71.7146 12.2052 73.4322 12.2028C73.6537 12.2028 74.1754 12.2421 75.0044 12.3171L75.0044 9.72293C75.0368 9.30794 74.9566 8.89191 74.7721 8.51874C74.685 8.39609 74.5672 8.29851 74.4305 8.23579C74.2938 8.17307 74.1429 8.14742 73.9932 8.16141C73.8414 8.14842 73.6889 8.17443 73.5501 8.23697C73.4113 8.29951 73.2907 8.3965 73.1999 8.51874C73.0091 8.88736 72.9249 9.30193 72.9569 9.71579L72.9569 10.9271L68.7154 10.9271L68.7154 10.6377C68.7154 8.49372 69.0978 7.02272 69.8624 6.22468C70.6271 5.42665 72.0433 5.03002 74.1111 5.03478ZM73.9896 19.0242C74.1848 19.0283 74.3783 18.986 74.554 18.9009C74.7298 18.8158 74.8829 18.6903 75.0008 18.5347L75.0008 15.0721C74.7306 14.9869 74.4479 14.9483 74.1647 14.9578C73.643 14.9578 73.3035 15.09 73.1391 15.3544C72.9748 15.6189 72.8962 16.1727 72.8962 17.0196C72.8637 17.54 72.9518 18.0609 73.1534 18.5418C73.2309 18.6947 73.3512 18.8218 73.4997 18.9074C73.6482 18.9931 73.8184 19.0337 73.9896 19.0242Z" fill="#262626"/>
<path d="M89.7121 5.03477C91.1723 5.03477 92.2443 5.48858 92.928 6.39619C93.6117 7.30381 93.969 8.72002 94 10.6448L94 21.865L89.5155 21.865L89.5155 9.7658C89.5155 8.69382 89.1189 8.15068 88.3328 8.15068C88.1181 8.14212 87.9044 8.18462 87.7094 8.27469C87.5143 8.36476 87.3434 8.49984 87.2108 8.66881L87.2108 21.865L82.7227 21.865L82.7227 6.6435e-06L87.2108 7.03586e-06L87.2108 5.9138C87.8975 5.30496 88.7954 4.9894 89.7121 5.03477Z" fill="#262626"/>
<path d="M16.5847 48C14.5766 48 13.1198 47.5236 12.2146 46.5707C11.3094 45.6178 10.858 44.0801 10.8603 41.9576L10.8603 40.4711L15.3448 40.4711L15.3448 43.1118C15.3448 44.2838 15.7867 44.8698 16.6705 44.8698C17.5543 44.8698 17.9974 44.2838 17.9998 43.1118L17.9998 40.8534C18.0417 40.3639 17.9003 39.8762 17.6031 39.4849C17.3387 39.1954 16.7813 38.9132 15.938 38.6344C14.118 38.0389 12.8268 37.2671 12.0645 36.3189C11.3022 35.3708 10.9199 34.0606 10.9175 32.3883L10.9175 32.3597C10.9175 29.8894 11.3523 28.1397 12.2218 27.1106C13.0913 26.0815 14.5742 25.5645 16.6705 25.5598C18.6596 25.5598 20.0973 26.0362 20.9835 26.9891C21.8696 27.942 22.3115 29.4904 22.3092 31.6344L22.3092 32.7993L17.8247 32.7993L17.8247 30.3194C17.8586 29.88 17.7563 29.4408 17.5317 29.0616C17.4183 28.9329 17.2758 28.8333 17.116 28.7712C16.9562 28.709 16.7838 28.686 16.6133 28.7043C16.4423 28.6855 16.2692 28.7081 16.1087 28.7703C15.9483 28.8325 15.8051 28.9324 15.6914 29.0616C15.4671 29.4369 15.3659 29.873 15.402 30.3087L15.402 32.1811C15.3664 32.6756 15.5154 33.1657 15.8201 33.5568C16.2519 33.9575 16.778 34.2426 17.3494 34.3858C19.2147 34.9933 20.5392 35.7746 21.3229 36.7299C22.1067 37.6851 22.4985 38.9953 22.4985 40.6605L22.4985 41.2108C22.4985 43.6621 22.0495 45.407 21.1514 46.4456C20.2533 47.4843 18.7311 48.0024 16.5847 48Z" fill="#262626"/>
<path d="M37.1848 47.7106L32.4681 47.7106L30.0132 40.4425L30.0132 47.7106L25.5287 47.7106L25.5288 25.8456L30.0132 25.8456L30.0132 38.1342L32.3216 31.1698L37.024 31.1698L34.0367 39.2312L37.1848 47.7106Z" fill="#262626"/>
<path d="M39.175 29.7298L39.175 25.8456L44.0204 25.8456L44.0204 29.7298L39.175 29.7298ZM39.3287 47.7106L39.3287 31.1698L43.8346 31.1698L43.8346 47.7106L39.3287 47.7106Z" fill="#262626"/>
<path d="M47.2257 47.7106L47.2257 25.8456L51.7102 25.8456L51.7102 47.7106L47.2257 47.7106Z" fill="#262626"/>
<path d="M55.1012 47.7106L55.1012 25.8456L59.5857 25.8456L59.5857 47.7106L55.1012 47.7106Z" fill="#262626"/>
<path d="M67.7113 48C65.8246 48 64.4631 47.6224 63.627 46.8673C62.7908 46.1121 62.3775 44.8698 62.3871 43.1403L62.3871 42.1577L66.5857 42.1577L66.5857 43.687C66.5566 44.0092 66.6345 44.3319 66.8072 44.6054C66.9059 44.7009 67.024 44.7739 67.1535 44.8195C67.283 44.8652 67.4209 44.8823 67.5576 44.8698C67.6918 44.8856 67.8278 44.8707 67.9553 44.8261C68.0829 44.7815 68.1986 44.7085 68.2937 44.6125C68.4561 44.3327 68.5272 44.0092 68.4974 43.687L68.4974 43.1403C68.5222 42.9223 68.5009 42.7016 68.4351 42.4923C68.3692 42.283 68.2602 42.0899 68.115 41.9254C67.8554 41.6872 67.2158 41.4085 66.1962 41.0893C64.8383 40.6462 63.87 40.0185 63.2911 39.2061C62.7122 38.3938 62.4204 37.2623 62.4157 35.8115L62.4157 35.7829C62.4157 34.1749 62.8611 32.9565 63.7521 32.1275C64.643 31.2985 65.9532 30.8816 67.6827 30.8768C71.1631 30.8768 72.9033 32.3335 72.9033 35.2469L72.9033 36.2081L68.6296 36.2081L68.6296 35.1826C68.6576 34.8642 68.5944 34.5445 68.4474 34.2607C68.3664 34.1652 68.2629 34.0913 68.1463 34.0457C68.0296 34.0002 67.9034 33.9844 67.7792 33.9999C67.6523 33.9852 67.5237 34.0012 67.4043 34.0466C67.2849 34.092 67.1782 34.1654 67.0931 34.2607C66.9382 34.5419 66.871 34.8629 66.9001 35.1826L66.9001 35.4435C66.8756 35.6598 66.8969 35.8789 66.9628 36.0864C67.0287 36.2939 67.1376 36.4851 67.2825 36.6477C67.535 36.8716 68.1615 37.1479 69.162 37.4767C70.5913 37.9269 71.5823 38.5439 72.135 39.3276C72.6877 40.1114 72.9723 41.2715 72.989 42.808L72.989 42.9974C72.989 46.3325 71.2298 48 67.7113 48Z" fill="#262626"/>
<path d="M6.06134 43.8836C6.46398 43.9123 6.84925 44.0589 7.16906 44.3052C7.38294 44.4853 7.55088 44.7138 7.659 44.9716C7.76711 45.2295 7.8123 45.5094 7.79081 45.7881C7.80841 46.0813 7.74868 46.3739 7.61761 46.6366C7.48654 46.8994 7.28873 47.1231 7.04399 47.2854C6.42558 47.6722 5.70361 47.8604 4.97506 47.8249C4.56056 47.8249 3.485 47.7749 2.83109 47.2854C2.59669 47.1101 2.40894 46.88 2.28432 46.6152C2.15971 46.3504 2.10205 46.059 2.11642 45.7667C2.09629 45.4544 2.16772 45.143 2.32196 44.8707C2.47619 44.5984 2.70653 44.3771 2.98473 44.2338C3.22414 44.098 3.82446 43.83 5.15729 43.8407L5.15729 46.928C5.68805 46.9527 6.21518 46.829 6.67952 46.5707C6.82244 46.4903 6.94103 46.3729 7.02279 46.2308C7.10455 46.0886 7.14644 45.9271 7.14404 45.7631C7.14761 45.5975 7.10632 45.434 7.02455 45.29C6.94277 45.1459 6.82355 45.0267 6.67952 44.9449C6.49018 44.8323 6.27739 44.765 6.05776 44.7483L6.06134 43.8836ZM4.52125 44.7519C4.08184 44.744 3.64542 44.8254 3.23844 44.9913C3.08333 45.05 2.95125 45.1572 2.86179 45.2968C2.77233 45.4365 2.73024 45.6012 2.74175 45.7667C2.73585 45.9304 2.77301 46.0928 2.84951 46.2376C2.92601 46.3825 3.03917 46.5047 3.17769 46.5921C3.5833 46.8149 4.0408 46.9259 4.50338 46.9137L4.52125 44.7519Z" fill="#262626"/>
<path d="M3.87804 42.6222C3.51702 42.6262 3.16117 42.5363 2.84536 42.3614C2.59938 42.1989 2.40269 41.9721 2.27668 41.7056C2.15068 41.439 2.10018 41.1431 2.1307 40.8499C2.10101 40.4197 2.22793 39.9932 2.48803 39.6492C2.67115 39.4672 2.89249 39.3282 3.136 39.2423C3.37951 39.1563 3.63909 39.1257 3.89591 39.1526L6.50441 39.1526C6.62582 39.1658 6.74862 39.1486 6.86174 39.1025C6.95464 39.0418 6.96536 38.9167 6.93678 38.7702L7.58711 38.7702C7.60975 38.9146 7.62406 39.0601 7.62999 39.2062C7.64013 39.3721 7.59212 39.5364 7.49421 39.6707C7.45447 39.7312 7.4018 39.7821 7.34002 39.8198C7.27823 39.8575 7.20885 39.881 7.13688 39.8887C7.35559 40.0605 7.5291 40.2831 7.64242 40.5371C7.75574 40.7912 7.80544 41.069 7.78722 41.3466C7.80321 41.578 7.75576 41.8095 7.64998 42.016C7.54421 42.2225 7.3841 42.3963 7.18691 42.5186C6.89047 42.6941 6.54805 42.7763 6.20425 42.7544C5.96118 42.7718 5.71769 42.7268 5.49692 42.6236C5.27615 42.5204 5.08543 42.3625 4.94288 42.1648C4.74962 41.8614 4.62746 41.5181 4.58555 41.1607C4.54267 40.9035 4.51409 40.5712 4.46049 40.346C4.45586 40.2912 4.43862 40.2381 4.41011 40.191C4.3816 40.1439 4.34259 40.104 4.29612 40.0745C4.15298 40.024 4.00021 40.0069 3.84946 40.0244C3.53066 39.9916 3.21077 40.0754 2.94899 40.2603C2.87371 40.3376 2.81617 40.4304 2.78038 40.5322C2.74459 40.6341 2.7314 40.7424 2.74174 40.8499C2.73304 40.9621 2.74689 41.0749 2.78249 41.1817C2.81808 41.2885 2.8747 41.3871 2.94899 41.4716C3.07196 41.5818 3.21638 41.6653 3.37319 41.717C3.53 41.7686 3.69581 41.7873 3.86018 41.7718L3.87804 42.6222ZM5.02507 40.0244C5.06356 40.1771 5.09103 40.3324 5.10725 40.489C5.12736 40.7477 5.17285 41.0038 5.24304 41.2537C5.31414 41.4566 5.45448 41.6281 5.63941 41.7378C5.82434 41.8476 6.04204 41.8887 6.25428 41.854C6.47951 41.8718 6.70462 41.818 6.89747 41.7003C6.97588 41.6414 7.03913 41.5646 7.082 41.4764C7.12487 41.3881 7.14613 41.291 7.14402 41.1929C7.14416 41.0163 7.10324 40.842 7.02448 40.6838C6.94573 40.5257 6.8313 40.388 6.69022 40.2817C6.27798 40.0641 5.81014 39.9745 5.34666 40.0244L5.02507 40.0244Z" fill="#262626"/>
<path d="M6.02205 36.9621C6.2886 36.9801 6.55454 36.9192 6.78673 36.787C6.90498 36.7033 6.99988 36.5907 7.06241 36.46C7.12495 36.3293 7.15305 36.1848 7.14406 36.0402C7.15368 35.9052 7.1308 35.7699 7.07733 35.6455C7.02386 35.5212 6.94137 35.4115 6.83676 35.3256C6.64534 35.2028 6.42083 35.1416 6.19357 35.1505C5.97094 35.1392 5.7524 35.2134 5.58254 35.3577C5.35691 35.6463 5.21035 35.9887 5.15731 36.3511C5.08044 36.7118 4.91183 37.0465 4.66778 37.323C4.3752 37.5563 4.00443 37.6689 3.63153 37.6375C3.41037 37.6482 3.18969 37.608 2.9865 37.5201C2.78331 37.4321 2.60301 37.2987 2.45949 37.1301C2.21845 36.7776 2.09924 36.356 2.12002 35.9294C2.09196 35.5181 2.2195 35.1113 2.47735 34.7896C2.64056 34.6325 2.83402 34.5104 3.04596 34.4305C3.2579 34.3506 3.48388 34.3148 3.71014 34.325L3.71014 35.1826C3.48523 35.1687 3.26129 35.2222 3.06694 35.3363C2.96834 35.4085 2.88927 35.5041 2.83686 35.6145C2.78446 35.725 2.76037 35.8467 2.76678 35.9688C2.7601 36.0701 2.77408 36.1718 2.80786 36.2676C2.84164 36.3635 2.89453 36.4514 2.96332 36.5262C3.14838 36.682 3.38656 36.7601 3.62795 36.7442C3.73689 36.7528 3.84645 36.7389 3.94975 36.7032C4.05305 36.6676 4.14787 36.6109 4.22826 36.5369C4.40621 36.2918 4.52263 36.0074 4.56772 35.7079C4.64303 35.3205 4.80286 34.9545 5.03582 34.6359C5.17078 34.4887 5.33735 34.3739 5.52301 34.3003C5.70868 34.2266 5.90861 34.196 6.10781 34.2107C6.35346 34.2009 6.59813 34.2469 6.82342 34.3453C7.04871 34.4438 7.24875 34.592 7.40849 34.7788C7.68005 35.1685 7.81454 35.6373 7.79083 36.1117C7.81425 36.5154 7.70508 36.9157 7.47995 37.2516C7.24412 37.5624 6.81889 37.8304 6.02205 37.8412L6.02205 36.9621Z" fill="#262626"/>
<path d="M8.73423 32.835C8.81403 32.7148 8.85972 32.5753 8.86644 32.4312C8.86644 32.0489 8.46266 31.9524 7.97669 31.8487L7.58363 31.7666L2.32733 33.496L2.32733 32.5027L6.37229 31.3128L2.32733 30.3301L2.32733 29.4582L8.20538 31.0448C8.49734 31.1031 8.7791 31.2043 9.04153 31.3449C9.20839 31.4576 9.34231 31.6126 9.42958 31.7941C9.51685 31.9755 9.55435 32.1769 9.53822 32.3776C9.53644 32.5319 9.51605 32.6855 9.47747 32.835L8.73423 32.835Z" fill="#262626"/>
<path d="M6.02205 25.1309C6.28874 25.1506 6.55518 25.0896 6.78674 24.9559C6.9052 24.8732 7.00033 24.7613 7.06293 24.6311C7.12552 24.5009 7.15347 24.3568 7.14407 24.2126C7.15368 24.0776 7.1308 23.9423 7.07733 23.8179C7.02387 23.6936 6.94137 23.5838 6.83677 23.498C6.64643 23.3727 6.42113 23.3114 6.19358 23.3229C5.97068 23.3098 5.75147 23.3841 5.58254 23.5301C5.35691 23.8187 5.21035 24.161 5.15732 24.5235C5.0793 24.8816 4.91075 25.2138 4.66778 25.4883C4.37441 25.7265 4.00132 25.8441 3.62438 25.817C3.40358 25.8276 3.18326 25.7878 2.98017 25.7005C2.77708 25.6132 2.59656 25.4807 2.45234 25.3132C2.21178 24.9605 2.09262 24.539 2.11288 24.1126C2.0848 23.8971 2.10622 23.678 2.17551 23.4721C2.2448 23.2661 2.36013 23.0787 2.51275 22.924C2.66537 22.7693 2.85125 22.6514 3.05626 22.5794C3.26127 22.5073 3.48001 22.483 3.69584 22.5082L3.69584 23.3443C3.47059 23.3317 3.24669 23.3864 3.05265 23.5015C2.95311 23.572 2.87327 23.6668 2.82073 23.7769C2.76819 23.887 2.7447 24.0087 2.7525 24.1304C2.74594 24.2323 2.75996 24.3345 2.79373 24.4309C2.82749 24.5273 2.88031 24.6159 2.94903 24.6914C3.13409 24.8472 3.37228 24.9253 3.61366 24.9094C3.7226 24.9181 3.83216 24.9041 3.93546 24.8685C4.03876 24.8328 4.13358 24.7762 4.21397 24.7022C4.39119 24.4566 4.50753 24.1725 4.55343 23.8731C4.62783 23.4855 4.78775 23.1192 5.02154 22.8012C5.156 22.6533 5.32249 22.5381 5.50828 22.4644C5.69407 22.3907 5.89425 22.3604 6.09352 22.3759C6.339 22.3597 6.58495 22.3996 6.81277 22.4924C7.04058 22.5853 7.24429 22.7287 7.40849 22.9119C7.68082 23.3026 7.81534 23.7728 7.79084 24.2483C7.81373 24.652 7.7046 25.0521 7.47996 25.3882C7.24412 25.6991 6.8189 25.9671 6.02205 25.9778L6.02205 25.1309Z" fill="#262626"/>
<path d="M2.32731 20.2856L2.88116 20.2856L2.88116 20.2427C2.71704 20.1852 2.56888 20.0897 2.4488 19.964C2.23228 19.7305 2.1167 19.421 2.1272 19.1028C2.12129 18.9394 2.15008 18.7765 2.21167 18.625C2.27326 18.4735 2.36626 18.3367 2.48453 18.2238C2.66369 18.0758 2.87773 17.9762 3.10628 17.9343C2.85847 17.8766 2.63486 17.7429 2.46666 17.552C2.23712 17.2816 2.1184 16.9344 2.13435 16.5801C2.12913 16.3962 2.16453 16.2134 2.23803 16.0448C2.31153 15.8762 2.42132 15.7259 2.55957 15.6046C2.99194 15.2472 3.63155 15.2115 4.20328 15.2115L7.5979 15.2115L7.5979 16.0834L4.2676 16.0834C3.97216 16.0765 3.67671 16.0968 3.385 16.1441C3.117 16.1977 2.77396 16.3299 2.77396 16.7659C2.7818 16.9451 2.84319 17.1178 2.9502 17.2618C3.05721 17.4057 3.20493 17.5143 3.37428 17.5734C3.71855 17.6925 4.08241 17.7446 4.44626 17.7271L7.58003 17.7271L7.58003 18.5954L4.25688 18.5954C3.96244 18.5867 3.66789 18.6083 3.37785 18.6597C3.10985 18.7097 2.75609 18.8455 2.75609 19.2815C2.76248 19.4502 2.81794 19.6135 2.91568 19.7512C3.01341 19.8889 3.14919 19.9951 3.30638 20.0569C3.6681 20.2017 4.05727 20.2651 4.44626 20.2427L7.58003 20.2427L7.58003 21.111L2.32373 21.111L2.32731 20.2856Z" fill="#262626"/>
<path d="M2.68813 13.2283C2.32438 12.8622 2.12022 12.367 2.12022 11.8508C2.12022 11.3347 2.32438 10.8395 2.68813 10.4733C3.27772 9.94806 4.33541 9.80155 4.94645 9.80155C5.55748 9.80155 6.6116 9.94806 7.21191 10.4733C7.39504 10.653 7.54052 10.8673 7.63982 11.1038C7.73913 11.3404 7.79028 11.5943 7.79028 11.8508C7.79028 12.1074 7.73913 12.3613 7.63982 12.5978C7.54052 12.8344 7.39504 13.0487 7.21191 13.2283C6.6116 13.7572 5.58606 13.9001 4.94644 13.9001C4.30683 13.9001 3.27772 13.7572 2.68813 13.2283ZM6.49725 12.7209C6.68481 12.6653 6.84935 12.5505 6.96637 12.3937C7.08339 12.2369 7.14661 12.0465 7.14661 11.8508C7.14661 11.6552 7.08339 11.4648 6.96637 11.308C6.84936 11.1512 6.68481 11.0364 6.49725 10.9807C6.00544 10.7815 5.4766 10.6901 4.94645 10.7127C4.41856 10.6893 3.89189 10.7808 3.40279 10.9807C3.21715 11.0385 3.05485 11.154 2.93958 11.3106C2.82432 11.4671 2.76215 11.6564 2.76215 11.8508C2.76215 12.0452 2.82432 12.2345 2.93958 12.3911C3.05484 12.5476 3.21715 12.6632 3.40279 12.7209C3.89189 12.9209 4.41856 13.0123 4.94645 12.9889C5.4766 13.0116 6.00544 12.9202 6.49725 12.7209Z" fill="#262626"/>
<path d="M2.32735 5.87092L2.32735 4.90971L4.3534 6.47123L7.56936 4.74176L7.56936 5.70655L5.02518 7.05011L5.7577 7.62183L7.58008 7.62183L7.58008 8.49014L0.337027 8.49014L0.337027 7.62183L4.62497 7.62183L2.32735 5.87092Z" fill="#262626"/>
<path d="M6.06134 0.189408C6.46395 0.220979 6.84875 0.368692 7.16906 0.614631C7.38266 0.794176 7.55045 1.02199 7.65857 1.27922C7.76668 1.53646 7.81202 1.81574 7.79082 2.09397C7.81062 2.38938 7.75196 2.68478 7.62081 2.95022C7.48966 3.21567 7.29066 3.44172 7.044 3.60547C6.42438 3.98852 5.70249 4.17305 4.97506 4.13432C4.56056 4.13432 3.485 4.08072 2.83109 3.59475C2.59618 3.41917 2.40812 3.18846 2.28348 2.92298C2.15884 2.6575 2.10146 2.36543 2.11643 2.07253C2.097 1.76083 2.16878 1.45021 2.32298 1.17862C2.47717 0.907032 2.70712 0.686224 2.98474 0.543166C3.22415 0.407381 3.82446 0.139382 5.1573 0.150102L5.1573 3.22313C5.68805 3.2478 6.21519 3.12406 6.67952 2.8658C6.82105 2.78248 6.93837 2.66365 7.01988 2.52107C7.10139 2.3785 7.14427 2.21711 7.14427 2.05288C7.14427 1.88864 7.10139 1.72726 7.01988 1.58468C6.93837 1.44211 6.82105 1.32328 6.67952 1.23996C6.49018 1.12741 6.2774 1.06015 6.05777 1.04342L6.06134 0.189408ZM4.52126 1.06129C4.08824 1.05646 3.65849 1.13659 3.25631 1.29713C3.10186 1.35681 2.97044 1.46415 2.88113 1.60358C2.79182 1.74301 2.74926 1.90727 2.75963 2.07253C2.75382 2.23671 2.79098 2.39956 2.86744 2.54496C2.9439 2.69036 3.05701 2.81328 3.19557 2.90154C3.60118 3.12427 4.05867 3.23525 4.52125 3.22313L4.52126 1.06129Z" fill="#262626"/>
</svg>
