<svg width="80" height="80" viewBox="0 0 80 80" fill="none" xmlns="http://www.w3.org/2000/svg">
<path d="M10.3912 27.2085L10.4824 27.011C10.6305 26.7192 10.669 26.384 10.5909 26.0662C10.5129 25.7484 10.3234 25.4692 10.057 25.2792L10.5583 24.3221L16.4224 27.3604L15.7843 28.5758L11.6521 26.4641L11.0749 27.5731L10.3912 27.2085Z" fill="#262626"/>
<path d="M15.1007 18.5796C16.1294 18.6808 17.096 19.1187 17.8504 19.8253C18.6983 20.427 19.3232 21.2923 19.6278 22.2864C19.6712 22.5576 19.6527 22.8351 19.5738 23.0981C19.4949 23.3612 19.3576 23.603 19.1721 23.8056C19.0179 24.0241 18.8161 24.2047 18.5819 24.3337C18.3476 24.4626 18.0871 24.5366 17.82 24.55C16.7812 24.4361 15.8092 23.9821 15.0551 23.2587C14.2192 22.6483 13.6015 21.7855 13.2928 20.7976C13.2436 20.5264 13.2592 20.2473 13.3384 19.9833C13.4176 19.7193 13.5582 19.4777 13.7486 19.2784C13.9082 19.0691 14.1122 18.8978 14.3461 18.777C14.5799 18.6561 14.8376 18.5887 15.1007 18.5796ZM14.5538 20.7672C14.9027 21.3511 15.3558 21.866 15.8906 22.2864C16.39 22.7279 16.9669 23.073 17.5921 23.3042C17.7146 23.336 17.8435 23.3323 17.964 23.2936C18.0844 23.255 18.1914 23.183 18.2726 23.0859C18.3537 22.9889 18.4057 22.8708 18.4224 22.7454C18.439 22.62 18.4198 22.4924 18.3669 22.3775C18.0251 21.7838 17.5649 21.2667 17.0148 20.8584C16.5202 20.3917 15.9433 20.0208 15.3134 19.7645C15.1917 19.7397 15.0657 19.7478 14.9482 19.7878C14.8308 19.8279 14.7261 19.8985 14.6449 19.9924C14.5525 20.0969 14.4943 20.2271 14.478 20.3655C14.4617 20.504 14.4881 20.6442 14.5538 20.7672Z" fill="#262626"/>
<path d="M20.6609 13.5815C21.6426 13.9109 22.4904 14.5508 23.0764 15.4045C23.7955 16.1869 24.2338 17.1864 24.3221 18.2454C24.3065 18.5112 24.2281 18.7696 24.0935 18.9993C23.9588 19.229 23.7716 19.4236 23.5473 19.5671C23.3472 19.7554 23.1046 19.8924 22.84 19.9665C22.5754 20.0406 22.2969 20.0495 22.0281 19.9925C21.0388 19.6776 20.1867 19.0345 19.6126 18.1694C18.922 17.3987 18.5054 16.4213 18.4277 15.3893C18.45 15.1231 18.5311 14.8651 18.665 14.634C18.799 14.4028 18.9825 14.2042 19.2025 14.0525C19.395 13.8701 19.6259 13.7332 19.8783 13.6517C20.1306 13.5702 20.398 13.5463 20.6609 13.5815ZM19.643 15.5868C19.8597 16.2214 20.1948 16.809 20.6305 17.3187C21.0182 17.8586 21.5023 18.3221 22.0585 18.686C22.1718 18.7442 22.2994 18.7689 22.4263 18.7571C22.5532 18.7452 22.674 18.6974 22.7746 18.6191C22.8752 18.5409 22.9513 18.4356 22.994 18.3155C23.0367 18.1955 23.0442 18.0657 23.0156 17.9416C22.7978 17.3121 22.4628 16.7296 22.0281 16.2249C21.6373 15.6835 21.1538 15.2155 20.6001 14.8424C20.485 14.7909 20.3583 14.7708 20.2328 14.7841C20.1074 14.7975 19.9878 14.8438 19.8861 14.9184C19.7907 14.9989 19.718 15.1029 19.6754 15.2202C19.6327 15.3375 19.6216 15.4639 19.643 15.5868Z" fill="#262626"/>
<path d="M24.3221 11.6065C24.3211 11.2534 24.451 10.9124 24.6867 10.6494C24.8242 10.5129 24.9833 10.4 25.1576 10.3152C25.3383 10.2507 25.528 10.2148 25.7197 10.2089C25.9029 10.2142 26.0832 10.2559 26.2501 10.3315C26.417 10.4072 26.5672 10.5152 26.692 10.6494C26.9254 10.8938 27.1064 11.1833 27.2237 11.5002C27.369 11.8101 27.4516 12.1457 27.4668 12.4876C27.4705 12.855 27.3409 13.2112 27.1022 13.4903C26.9667 13.6253 26.8069 13.7336 26.6312 13.8093C26.4523 13.8801 26.2616 13.9161 26.0691 13.9157C25.8882 13.91 25.7103 13.8681 25.5459 13.7925C25.3815 13.7168 25.234 13.6089 25.1121 13.4751C24.8718 13.2333 24.6854 12.9434 24.5652 12.6244C24.4088 12.3076 24.3257 11.9597 24.3221 11.6065ZM25.7197 12.7915C25.9628 13.0953 26.1907 13.1257 26.3274 13.0649C26.4641 13.0042 26.6009 12.8219 26.5401 12.4421C26.4984 12.2293 26.4374 12.0208 26.3578 11.8192C26.2704 11.6169 26.1635 11.4236 26.0388 11.2419C25.7957 10.9381 25.5678 10.9229 25.4463 10.9685C25.3453 11.033 25.2683 11.1289 25.2272 11.2414C25.186 11.3539 25.1829 11.4769 25.2184 11.5913C25.2621 11.8036 25.3231 12.0119 25.4007 12.2142C25.4929 12.4171 25.6049 12.6105 25.7349 12.7915H25.7197ZM28.0289 9.13026L28.8796 8.84161L28.3479 16.2552L27.5124 16.6198L28.0289 9.13026ZM28.8796 13.0345C28.8631 12.6606 28.994 12.2951 29.2442 12.0167C29.3835 11.8864 29.5425 11.7787 29.7152 11.6977C29.8902 11.6319 30.0751 11.5959 30.2621 11.5913C30.4454 11.5958 30.626 11.6371 30.793 11.7128C30.96 11.7885 31.1101 11.897 31.2344 12.0319C31.4746 12.2737 31.661 12.5636 31.7813 12.8826C31.9275 13.1915 32.0053 13.5284 32.0091 13.8701C32.0171 14.2355 31.893 14.5914 31.6597 14.8728C31.5176 14.9996 31.3592 15.1069 31.1888 15.1918C31.0081 15.2563 30.8184 15.2922 30.6267 15.2981C30.4435 15.2928 30.2632 15.2511 30.0963 15.1755C29.9294 15.0998 29.7792 14.9918 29.6544 14.8576C29.4141 14.6158 29.2277 14.3258 29.1075 14.0068C28.9697 13.7004 28.8924 13.3703 28.8796 13.0345ZM30.2925 14.2043C30.5203 14.5233 30.7482 14.5537 30.8849 14.493C31.0217 14.4322 31.1736 14.2499 31.1128 13.8701C31.0712 13.6574 31.0101 13.4489 30.9305 13.2472C30.8383 13.0443 30.7263 12.851 30.5963 12.6699C30.3684 12.3661 30.1254 12.3509 30.0038 12.3965C29.8823 12.4421 29.7152 12.6244 29.7759 13.0194C29.8182 13.2337 29.8845 13.4427 29.9734 13.6422C30.0548 13.8427 30.162 14.0317 30.2925 14.2043Z" fill="#262626"/>
<path d="M37.4934 12.8379C37.2454 12.3704 37.1199 11.8476 37.1287 11.3184C37.0977 10.7958 37.1969 10.2737 37.4174 9.79895C37.6018 9.49022 37.8603 9.23244 38.1696 9.04906C38.4789 8.86568 38.8292 8.7625 39.1885 8.74892C39.5478 8.73533 39.9048 8.81176 40.2271 8.97126C40.5494 9.13076 40.8267 9.36827 41.0338 9.6622C41.2806 10.1302 41.406 10.6526 41.3985 11.1817C41.4308 11.7043 41.3316 12.2268 41.1098 12.7011C40.9276 13.0239 40.6648 13.2939 40.3471 13.4847C40.0294 13.6756 39.6676 13.7807 39.2971 13.7899C38.9266 13.7991 38.56 13.712 38.2332 13.5371C37.9064 13.3623 37.6306 13.1056 37.4326 12.7923L37.4934 12.8379ZM39.9702 12.4428C40.2341 11.6643 40.2341 10.8206 39.9702 10.0421C39.9173 9.91434 39.8277 9.80516 39.7127 9.72835C39.5978 9.65153 39.4626 9.61054 39.3244 9.61054C39.1861 9.61054 39.051 9.65153 38.936 9.72835C38.8211 9.80516 38.7315 9.91434 38.6786 10.0421C38.5509 10.4288 38.4943 10.8355 38.5115 11.2424C38.513 11.6532 38.5903 12.0601 38.7394 12.4428C38.7912 12.5703 38.8827 12.6777 39.0005 12.7488C39.1182 12.82 39.2558 12.8513 39.3928 12.8379C39.5166 12.8335 39.6366 12.7941 39.7388 12.7242C39.841 12.6542 39.9213 12.5566 39.9702 12.4428Z" fill="#262626"/>
<path d="M46.6243 10.3155C46.5287 10.2999 46.4312 10.2999 46.3356 10.3155C46.1937 10.2867 46.0473 10.288 45.9059 10.3195C45.7646 10.3509 45.6314 10.4116 45.515 10.4978C45.044 10.8321 44.9528 11.4551 44.8465 12.1541L44.5274 14.023L43.251 13.8255L44.0716 9.13031L45.3327 9.34304L45.2415 9.95082C45.3162 9.75813 45.4361 9.58617 45.591 9.4494C45.8999 9.29055 46.2538 9.24228 46.5939 9.31265H46.7914L46.6243 10.3155Z" fill="#262626"/>
<path d="M48.3099 15.3437C48.2723 15.4675 48.2723 15.5997 48.3099 15.7235C48.3859 15.9514 48.5834 16.0122 48.7505 16.0729C48.8392 16.1208 48.9384 16.1459 49.0391 16.1459C49.1399 16.1459 49.2391 16.1208 49.3278 16.0729C49.577 15.8679 49.7486 15.5838 49.8139 15.2678L49.981 14.8272C49.8684 14.9401 49.7262 15.0191 49.5709 15.0551C49.3103 15.1466 49.0263 15.1466 48.7657 15.0551C48.5274 14.9893 48.3087 14.8664 48.1287 14.6969C47.9487 14.5275 47.8127 14.3167 47.7327 14.0828C47.533 13.4555 47.5599 12.7781 47.8086 12.1686C47.9923 11.4597 48.4373 10.8465 49.0543 10.452C49.2624 10.35 49.4911 10.297 49.7228 10.297C49.9545 10.297 50.1831 10.35 50.3912 10.452C50.6641 10.5224 50.8986 10.6969 51.0445 10.9381C51.1558 11.1042 51.2141 11.3002 51.2116 11.5002L51.3939 10.9989L52.5485 11.409L51.0293 15.526C50.9234 15.8111 50.8017 16.09 50.6647 16.3616C50.5505 16.5722 50.3924 16.7558 50.2011 16.9C50.0097 17.0441 49.7896 17.1455 49.5557 17.1971C49.1442 17.251 48.7258 17.1987 48.3403 17.0452C48.0005 16.9252 47.6823 16.7507 47.3984 16.5287C47.2058 16.3322 47.0701 16.0871 47.0059 15.8195C46.9417 15.552 46.9513 15.272 47.0338 15.0095L48.3099 15.3437ZM50.1481 13.9461C50.3471 13.6926 50.4965 13.404 50.5887 13.0953C50.7147 12.799 50.8015 12.4874 50.847 12.1686C50.8687 12.005 50.8318 11.839 50.7428 11.6999C50.6538 11.5609 50.5185 11.4578 50.3608 11.409C50.2242 11.3598 50.0755 11.3554 49.9362 11.3963C49.7969 11.4373 49.6743 11.5216 49.5861 11.6369C49.3663 11.9199 49.1967 12.2385 49.0847 12.5788C48.9517 12.9011 48.8895 13.2482 48.9024 13.5967C48.9206 13.7385 48.9801 13.8718 49.0734 13.9801C49.1668 14.0884 49.29 14.1669 49.4276 14.2057C49.5652 14.2446 49.7112 14.2421 49.8474 14.1987C49.9836 14.1552 50.1041 14.0726 50.1937 13.9613L50.1481 13.9461Z" fill="#262626"/>
<path d="M54.417 13.9613C54.609 13.6695 54.8699 13.4295 55.1766 13.2624C55.4622 13.1438 55.774 13.1024 56.0807 13.1424C56.3873 13.1824 56.6781 13.3024 56.9237 13.4903C57.3241 13.7009 57.6443 14.0372 57.8352 14.4474C57.915 14.7059 57.9289 14.9802 57.8759 15.2455C57.8228 15.5108 57.7044 15.7586 57.5313 15.9666L56.3464 17.82C56.1956 18.0264 56.0825 18.2578 56.0122 18.5036C55.9922 18.5382 55.9816 18.5775 55.9816 18.6175C55.9816 18.6575 55.9922 18.6968 56.0122 18.7315L54.9184 18.0478L55.131 17.6225C54.8912 17.7412 54.6192 17.7786 54.3563 17.7288C54.1134 17.7088 53.8789 17.6306 53.6726 17.5009C53.4588 17.3996 53.2774 17.2408 53.1486 17.0423C53.0198 16.8437 52.9488 16.6133 52.9434 16.3767C52.9662 16.0872 53.0545 15.8067 53.2017 15.5564C53.3343 15.3242 53.5308 15.135 53.7677 15.0111C54.0047 14.8873 54.2722 14.834 54.5386 14.8576C54.8784 14.9082 55.2071 15.016 55.5108 15.1766C55.9058 15.3589 56.1185 15.45 56.2704 15.4197C56.4052 15.3441 56.5118 15.2268 56.5743 15.0854C56.6554 14.9921 56.7034 14.8746 56.711 14.7512C56.7244 14.6533 56.7066 14.5537 56.6603 14.4665C56.6139 14.3793 56.5413 14.3088 56.4527 14.2651C56.3812 14.2078 56.2964 14.1695 56.2061 14.1536C56.1159 14.1376 56.023 14.1446 55.9362 14.1739C55.7567 14.2639 55.6046 14.4003 55.4956 14.5689L54.417 13.9613ZM55.9362 16.1337C55.7069 16.0925 55.4827 16.0262 55.2678 15.9362C55.1053 15.8657 54.9271 15.8395 54.7512 15.8602C54.5944 15.9094 54.4633 16.0186 54.3866 16.1641C54.333 16.2318 54.2944 16.3102 54.2734 16.394C54.2525 16.4778 54.2496 16.5652 54.2651 16.6502C54.3074 16.7648 54.3879 16.8614 54.493 16.9236C54.6684 16.9946 54.8645 16.9946 55.0399 16.9236C55.2153 16.879 55.3737 16.7839 55.4956 16.6502C55.6182 16.5325 55.7254 16.3998 55.8147 16.2552L55.9362 16.1337Z" fill="#262626"/>
<path d="M61.3597 17.6377C61.5753 17.5943 61.7973 17.5943 62.0129 17.6377C62.2804 17.7129 62.5221 17.8601 62.7117 18.0631C62.8503 18.1892 62.959 18.3447 63.03 18.5181C63.1009 18.6916 63.1323 18.8786 63.1219 19.0658C62.9975 19.5873 62.7102 20.0555 62.3016 20.4026L60.2051 22.5751L59.2632 21.7091L61.2077 19.7646C61.6635 19.2936 61.7546 19.1113 61.785 19.005C61.8219 18.9109 61.8285 18.8077 61.804 18.7097C61.7795 18.6117 61.7251 18.5237 61.6483 18.4581C61.5735 18.3852 61.4802 18.334 61.3786 18.3099C61.2769 18.2858 61.1706 18.2898 61.071 18.3214C60.7435 18.4386 60.4545 18.6435 60.2355 18.9138L58.3517 20.8128L57.425 19.9165L60.7824 16.468L61.6787 17.3339L61.3597 17.6377Z" fill="#262626"/>
<path d="M66.054 22.3471L62.1801 25.2032L61.4205 24.155L65.34 21.2837L66.054 22.3471ZM66.7528 20.2203L67.5428 21.2837L66.6313 21.9521L65.8413 20.8887L66.7528 20.2203Z" fill="#262626"/>
<path d="M66.6925 29.4881C66.2187 29.7112 65.684 29.77 65.1731 29.6553C64.9286 29.5701 64.704 29.4359 64.5133 29.2608C64.3225 29.0858 64.1696 28.8736 64.0639 28.6372C63.9093 28.4023 63.8075 28.1366 63.7656 27.8586C63.7236 27.5805 63.7424 27.2967 63.8207 27.0266C64.1088 26.3407 64.6543 25.7952 65.3402 25.5071C65.9592 25.1617 66.6759 25.0334 67.3763 25.1424C67.6609 25.2246 67.9233 25.3696 68.1443 25.5669C68.3652 25.7641 68.5389 26.0086 68.6526 26.282C68.7796 26.495 68.8589 26.733 68.8851 26.9795C68.9114 27.2261 68.8839 27.4754 68.8046 27.7103C68.604 28.1744 68.2499 28.5553 67.8017 28.7892L67.2395 27.6952C67.4102 27.5991 67.5642 27.4759 67.6954 27.3305C67.7634 27.2351 67.8 27.1209 67.8 27.0038C67.8 26.8867 67.7634 26.7724 67.6954 26.6771C67.6407 26.5538 67.5474 26.4515 67.4295 26.3858C67.3117 26.32 67.1757 26.2943 67.042 26.3124C66.6641 26.3525 66.2976 26.4661 65.9632 26.6467C65.598 26.8177 65.2641 27.0489 64.9755 27.3305C64.8571 27.4232 64.7742 27.554 64.741 27.7007C64.7078 27.8474 64.7262 28.0011 64.7932 28.1358C64.8478 28.2499 64.9383 28.3429 65.0508 28.4005C65.1634 28.4581 65.2917 28.4773 65.4162 28.4549C65.6308 28.4294 65.8406 28.3731 66.0392 28.2877L66.6925 29.4881Z" fill="#262626"/>
<path d="M12.8219 44.3145C13.0219 44.4052 13.1947 44.5466 13.3232 44.7247C13.4972 44.9424 13.6029 45.2066 13.6271 45.4843C13.6669 45.6682 13.6628 45.8589 13.6153 46.041C13.5678 46.2231 13.4782 46.3915 13.3536 46.5325C12.9304 46.8968 12.3928 47.1011 11.8344 47.1098L8.79607 47.5959L8.59858 46.3198L11.3483 45.8793C11.7075 45.8774 12.0594 45.7776 12.3661 45.5906C12.4548 45.5407 12.525 45.4634 12.5661 45.3703C12.6071 45.2772 12.617 45.1732 12.594 45.0741C12.5795 44.9703 12.5363 44.8726 12.4691 44.792C12.402 44.7115 12.3137 44.6513 12.2142 44.6183C11.8816 44.5233 11.529 44.5233 11.1964 44.6183L8.52262 45.0437L8.30994 43.7828L13.065 43.0232L13.2625 44.2537L12.8219 44.3145Z" fill="#262626"/>
<path d="M12.7763 49.3885C13.1056 49.2644 13.4616 49.2277 13.8093 49.2822C14.107 49.3627 14.3791 49.5181 14.5998 49.7335C14.8205 49.9489 14.9824 50.2171 15.0702 50.5127C15.2525 50.9173 15.3055 51.3682 15.2221 51.804C15.1325 52.0655 14.9783 52.3 14.7738 52.4859C14.5693 52.6718 14.3211 52.8031 14.0524 52.8675L12.0015 53.6422C11.7598 53.723 11.53 53.8354 11.3178 53.9765C11.288 54.0031 11.2644 54.0359 11.2487 54.0727C11.2329 54.1094 11.2254 54.1492 11.2267 54.1892L10.6494 53.0042L11.0748 52.7915C10.8073 52.7426 10.5625 52.6095 10.376 52.4117C10.1969 52.2532 10.0655 52.0481 9.99616 51.8192C9.86911 51.6194 9.80164 51.3876 9.80164 51.1508C9.80164 50.914 9.86911 50.6822 9.99616 50.4824C10.1841 50.2637 10.4246 50.0964 10.695 49.9962C10.9424 49.8797 11.2187 49.8392 11.4891 49.8797C11.7596 49.9203 12.0119 50.0401 12.2142 50.2241C12.4507 50.4637 12.6458 50.7409 12.7915 51.0445C13.0041 51.4394 13.1257 51.6521 13.2624 51.6977C13.4054 51.7452 13.5599 51.7452 13.703 51.6977C13.819 51.6579 13.9233 51.5901 14.0068 51.5002C14.0776 51.4299 14.1233 51.3384 14.137 51.2396C14.1507 51.1408 14.1317 51.0402 14.0828 50.9533C14.0629 50.8649 14.0202 50.7833 13.9589 50.7166C13.8976 50.65 13.8198 50.6006 13.7333 50.5735C13.5394 50.5205 13.3348 50.5205 13.1409 50.5735L12.7763 49.3885ZM12.7003 52.0319C12.5338 51.8646 12.3907 51.6755 12.2749 51.4698C12.1843 51.3157 12.0529 51.1895 11.8951 51.1052C11.7442 51.0436 11.5751 51.0436 11.4242 51.1052C11.2663 51.1609 11.1357 51.2751 11.0596 51.4242C11.0138 51.5415 11.0138 51.6716 11.0596 51.7889C11.1369 51.962 11.2785 52.0982 11.4546 52.1686C11.628 52.2206 11.8129 52.2206 11.9863 52.1686C12.1516 52.1425 12.3143 52.1019 12.4724 52.0471L12.7003 52.0319Z" fill="#262626"/>
<path d="M16.316 53.703L16.6806 54.2955L17.9111 53.5359L18.5948 54.6297L17.3642 55.3893L17.8048 56.0881L16.9844 56.6046L16.5439 55.9058L14.5841 57.1212C14.4317 57.1989 14.2972 57.3075 14.1892 57.4402C14.1598 57.491 14.1444 57.5486 14.1444 57.6073C14.1444 57.666 14.1598 57.7236 14.1892 57.7744C14.2821 57.9081 14.4009 58.0217 14.5386 58.1086L13.6878 58.6251C13.4374 58.3865 13.2133 58.1217 13.0194 57.8352C12.9332 57.713 12.8727 57.5746 12.8413 57.4284C12.81 57.2822 12.8086 57.1312 12.8371 56.9844C12.9434 56.6046 13.2777 56.3919 13.6423 56.1641L15.8147 54.812L15.4501 54.2043L16.316 53.703Z" fill="#262626"/>
<path d="M17.3794 62.4383C17.1881 62.4684 16.9934 62.4684 16.8021 62.4383C16.5333 62.3592 16.2949 62.2002 16.1185 61.9825C15.9783 61.8595 15.8714 61.7032 15.8077 61.5279C15.7439 61.3527 15.7254 61.1642 15.7539 60.9799C15.8774 60.4389 16.1967 59.9628 16.6502 59.643L18.853 57.6073L19.7341 58.5492L17.6832 60.4482C17.2123 60.8735 17.0907 61.0558 17.0452 61.2078C17.0164 61.2943 17.0125 61.3872 17.034 61.4759C17.0555 61.5645 17.1015 61.6453 17.1667 61.7091C17.2376 61.7886 17.3287 61.8475 17.4303 61.8795C17.5319 61.9116 17.6403 61.9157 17.744 61.8914C18.0842 61.7894 18.3892 61.5948 18.6251 61.3293L20.6001 59.4911L21.4812 60.4482L17.9415 63.6688L17.0756 62.7269L17.3794 62.4383Z" fill="#262626"/>
<path d="M24.8091 64.0339L24.5812 63.8212C24.4675 63.7287 24.3359 63.6607 24.1947 63.6215C24.0536 63.5823 23.9058 63.5727 23.7607 63.5932C23.1985 63.5932 22.8186 64.1706 22.3932 64.748L21.208 66.2675L20.1747 65.4926L23.0769 61.6635L24.095 62.4384L23.7303 62.9399C23.8981 62.8252 24.0908 62.7523 24.2925 62.7271C24.639 62.7228 24.9747 62.8474 25.2346 63.0766L25.4017 63.183L24.8091 64.0339Z" fill="#262626"/>
<path d="M25.7349 65.4766C25.8918 65.1635 26.1274 64.8965 26.4186 64.7018C26.6874 64.5501 26.991 64.4703 27.2997 64.4703C27.6084 64.4703 27.912 64.5501 28.1808 64.7018C28.5883 64.8793 28.9325 65.1759 29.1683 65.5526C29.2655 65.7996 29.3024 66.0663 29.276 66.3305C29.2495 66.5947 29.1606 66.8488 29.0164 67.0717L28.0289 69.0315C27.8914 69.2435 27.7984 69.4813 27.7555 69.7303C27.7355 69.7649 27.7249 69.8042 27.7249 69.8442C27.7249 69.8842 27.7355 69.9235 27.7555 69.9582L26.6009 69.3809L26.768 68.9403C26.535 69.0663 26.2732 69.1291 26.0084 69.1226C25.7627 69.1313 25.5198 69.0679 25.3096 68.9403C25.086 68.8662 24.8885 68.7294 24.7404 68.5463C24.5923 68.3632 24.4998 68.1414 24.474 67.9073C24.4627 67.6178 24.5254 67.3302 24.6563 67.0717C24.7626 66.825 24.9384 66.6146 25.1624 66.4662C25.3863 66.3178 25.6486 66.2379 25.9172 66.2362C26.256 66.2622 26.5888 66.339 26.9047 66.4641C27.3149 66.6008 27.5428 66.6768 27.6795 66.6312C27.8114 66.5533 27.9091 66.4285 27.9529 66.2818C28.0217 66.1782 28.0586 66.0567 28.0593 65.9324C28.0625 65.8342 28.0349 65.7375 27.9804 65.6558C27.926 65.574 27.8473 65.5114 27.7555 65.4766C27.6733 65.434 27.5821 65.4118 27.4896 65.4118C27.3971 65.4118 27.3059 65.434 27.2237 65.4766C27.0541 65.5844 26.9174 65.7368 26.8288 65.9172L25.7349 65.4766ZM27.4516 67.4819C27.2151 67.4568 26.9813 67.4111 26.7528 67.3452C26.5837 67.2994 26.4054 67.2994 26.2363 67.3452C26.0871 67.411 25.9678 67.5302 25.9021 67.6794C25.8695 67.7563 25.8527 67.839 25.8527 67.9225C25.8527 68.006 25.8695 68.0887 25.9021 68.1656C25.954 68.275 26.039 68.3654 26.1451 68.4238C26.2318 68.4598 26.3247 68.4783 26.4186 68.4783C26.5124 68.4783 26.6053 68.4598 26.692 68.4238C26.8627 68.3624 27.0145 68.2577 27.1326 68.12C27.2377 67.9877 27.3293 67.8452 27.406 67.6946L27.4516 67.4819Z" fill="#262626"/>
<path d="M33.5131 65.0361L31.6445 71.4167L30.3988 71.0217L32.2674 64.6715L33.5131 65.0361Z" fill="#262626"/>
<path d="M38.6183 71.1439C38.484 71.607 38.1873 72.0062 37.7826 72.2683C37.3516 72.4879 36.8597 72.5574 36.3847 72.4659C36.0877 72.46 35.7961 72.3856 35.5325 72.2486C35.269 72.1115 35.0406 71.9155 34.8653 71.6757C34.5401 71.0554 34.4229 70.3469 34.531 69.6548C34.575 68.9634 34.8662 68.3108 35.3515 67.8163C35.5756 67.6103 35.8452 67.4603 36.1383 67.3784C36.4314 67.2966 36.7397 67.2852 37.0381 67.3452C37.3631 67.3641 37.6766 67.4719 37.9446 67.6568C38.2125 67.8417 38.4246 68.0966 38.5576 68.3937C38.7732 68.9759 38.836 69.6037 38.7399 70.217V70.4905L35.8073 70.1563C35.7575 70.5004 35.7995 70.8516 35.9289 71.1743C35.991 71.2759 36.078 71.3599 36.1818 71.4184C36.2855 71.4769 36.4024 71.508 36.5215 71.5086C36.6333 71.5384 36.7514 71.5357 36.8618 71.5007C36.9721 71.4657 37.0702 71.3999 37.1445 71.3111C37.2087 71.2094 37.2646 71.1027 37.3116 70.992L38.6183 71.1439ZM37.5547 69.5333C37.596 69.2476 37.57 68.9562 37.4787 68.6824C37.4371 68.5678 37.3603 68.4694 37.2593 68.4012C37.1583 68.3329 37.0383 68.2984 36.9165 68.3025C36.8116 68.2833 36.7036 68.2883 36.6008 68.3173C36.4981 68.3463 36.4034 68.3984 36.3239 68.4697C36.1106 68.7196 35.9735 69.0254 35.9289 69.3509L37.5547 69.5333Z" fill="#262626"/>
<path d="M45.3171 67.1629L45.4387 67.725C45.4511 67.5323 45.5198 67.3474 45.6362 67.1933C45.829 66.9478 46.1043 66.7805 46.411 66.7223C46.6748 66.6417 46.9556 66.6345 47.2232 66.7014C47.4909 66.7683 47.7353 66.9069 47.9301 67.1021C48.3849 67.5882 48.6907 68.1945 48.8113 68.8492C48.9613 69.4167 48.9613 70.0135 48.8113 70.5811C48.7486 70.8792 48.5978 71.1516 48.3783 71.3629C48.1589 71.5742 47.881 71.7147 47.5807 71.766C47.3807 71.8212 47.1711 71.832 46.9665 71.7979C46.7618 71.7638 46.5671 71.6855 46.3958 71.5685L46.8667 73.5435L45.6058 73.8321L44.0866 67.4516L45.3171 67.1629ZM46.3198 70.5659C46.3954 70.6898 46.5077 70.787 46.6411 70.8442C46.7745 70.9014 46.9224 70.9156 47.0642 70.8849C47.2053 70.8549 47.3325 70.779 47.426 70.669C47.5194 70.5591 47.5738 70.4213 47.5807 70.2772C47.6565 69.891 47.6565 69.4937 47.5807 69.1075C47.5009 68.7288 47.3515 68.3682 47.1402 68.044C47.0651 67.9229 46.954 67.8283 46.8224 67.7733C46.6909 67.7184 46.5455 67.706 46.4066 67.7378C46.2676 67.7696 46.1421 67.8441 46.0476 67.9507C45.953 68.0574 45.8942 68.1909 45.8792 68.3327C45.8205 68.7185 45.8464 69.1125 45.9552 69.4873C46.0023 69.8678 46.1263 70.2348 46.3198 70.5659Z" fill="#262626"/>
<path d="M52.8523 65.3399C52.7569 65.3634 52.665 65.3992 52.5788 65.4463C52.4399 65.4936 52.3132 65.5714 52.2081 65.6739C52.103 65.7764 52.022 65.901 51.9711 66.0387C51.8501 66.6492 51.9758 67.2828 52.3206 67.801L53.1865 69.6696L52.0167 70.1861L49.981 65.7957L51.166 65.264L51.4242 65.8412C51.3854 65.6457 51.3854 65.4443 51.4242 65.2488C51.5936 64.9457 51.8617 64.7098 52.1838 64.5803H52.3661L52.8523 65.3399Z" fill="#262626"/>
<path d="M56.0125 67.2246C55.5592 66.95 55.17 66.5815 54.8712 66.1437C54.5724 65.706 54.3709 65.2093 54.2803 64.6871C54.2564 64.3164 54.3293 63.9458 54.4919 63.6117C54.6544 63.2777 54.9011 62.9917 55.2076 62.7817C55.5141 62.5718 55.8699 62.4451 56.2401 62.4142C56.6103 62.3833 56.9822 62.4492 57.3193 62.6054C57.7774 62.8761 58.171 63.2433 58.4728 63.6815C58.7746 64.1197 58.9772 64.6184 59.0666 65.1429C59.124 65.5163 59.066 65.8982 58.9004 66.2376C58.7347 66.5771 58.4694 66.8578 58.1398 67.0423C57.8453 67.2843 57.4843 67.4313 57.1045 67.4638C56.7247 67.4964 56.3439 67.413 56.0125 67.2246ZM57.8815 65.538C57.7757 65.1381 57.5952 64.7617 57.3496 64.4288C57.1297 64.0888 56.8459 63.7946 56.5139 63.5627C56.404 63.4813 56.2709 63.4373 56.1341 63.4373C55.9973 63.4373 55.8641 63.4813 55.7542 63.5627C55.6355 63.6353 55.5425 63.7432 55.488 63.8712C55.4335 63.9992 55.4204 64.141 55.4503 64.2768C55.5475 64.6725 55.7231 65.0445 55.9669 65.3709C56.1878 65.7193 56.4773 66.0192 56.8178 66.2522C56.9277 66.3336 57.0609 66.3775 57.1977 66.3775C57.3345 66.3775 57.4677 66.3336 57.5776 66.2522C57.6979 66.1812 57.7923 66.0736 57.847 65.9451C57.9017 65.8166 57.9138 65.6739 57.8815 65.538Z" fill="#262626"/>
<path d="M63.927 61.6484L63.4713 61.2838C63.5558 61.4692 63.5924 61.6729 63.5776 61.8762C63.5703 62.1724 63.4508 62.4547 63.2434 62.6662C63.0636 62.8855 62.8261 63.0501 62.5576 63.1414C62.2891 63.2327 62.0004 63.247 61.7242 63.1827C61.1006 63.05 60.5268 62.7446 60.0683 62.3016C59.6253 61.9209 59.2768 61.4424 59.0505 60.904C58.9331 60.6191 58.905 60.3052 58.9702 60.004C59.0353 59.7029 59.1904 59.4286 59.4151 59.2177C59.606 58.9906 59.8685 58.8352 60.1595 58.7771C60.2851 58.755 60.4136 58.755 60.5393 58.7771L59.0201 57.2579L59.886 56.3008L64.7626 60.8584L63.927 61.6484ZM61.1317 59.4304C61.0005 59.3786 60.8569 59.3668 60.719 59.3965C60.5811 59.4263 60.4552 59.4962 60.357 59.5975C60.2613 59.7032 60.201 59.8362 60.1847 59.9778C60.1684 60.1195 60.1967 60.2627 60.2658 60.3874C60.4322 60.7411 60.6763 61.0527 60.9798 61.2989C61.2538 61.5796 61.5856 61.7973 61.9521 61.937C62.0806 61.9972 62.225 62.015 62.3643 61.9877C62.5036 61.9603 62.6306 61.8894 62.7269 61.7851C62.8353 61.6841 62.9053 61.5485 62.9247 61.4016C62.9441 61.2547 62.9118 61.1056 62.8332 60.9799C62.6513 60.6318 62.4037 60.3223 62.104 60.0684C61.8222 59.7974 61.4925 59.5811 61.1317 59.4304Z" fill="#262626"/>
<path d="M67.4668 55.8906C67.5321 56.0718 67.5729 56.2608 67.5884 56.4527C67.5865 56.732 67.5076 57.0053 67.3605 57.2427C67.2802 57.4094 67.161 57.5544 67.0129 57.6655C66.8649 57.7765 66.6923 57.8503 66.5097 57.8807C65.9654 57.9129 65.4273 57.7515 64.9906 57.425L62.3928 55.9058L63.0308 54.7968L65.4463 56.1944C65.7137 56.395 66.0271 56.5256 66.3578 56.5742C66.4486 56.5801 66.5391 56.5586 66.6177 56.5126C66.6962 56.4666 66.7591 56.3981 66.7984 56.316C66.8549 56.2247 66.8848 56.1195 66.8848 56.0121C66.8848 55.9048 66.8549 55.7996 66.7984 55.7083C66.5998 55.4128 66.3202 55.1807 65.9932 55.0399L63.6689 53.6878L64.3069 52.5636L68.4695 54.9791L67.8162 56.0881L67.4668 55.8906Z" fill="#262626"/>
<path d="M69.1842 47.8846C69.6931 48.0683 70.1227 48.4227 70.3997 48.8875C70.524 49.1193 70.5953 49.3759 70.6085 49.6387C70.6216 49.9014 70.5763 50.1638 70.4757 50.4069C70.4116 50.682 70.2869 50.9393 70.1108 51.1601C69.9347 51.3809 69.7116 51.5596 69.4577 51.6833C68.7885 51.9451 68.0452 51.9451 67.376 51.6833C66.6922 51.4982 66.0919 51.0855 65.6742 50.5133C65.5284 50.2564 65.443 49.9696 65.4246 49.6747C65.4061 49.3798 65.4551 49.0846 65.5678 48.8115C65.6251 48.5696 65.7352 48.3433 65.8902 48.149C66.0452 47.9546 66.2412 47.7969 66.4643 47.6871C66.9555 47.5108 67.4926 47.5108 67.9838 47.6871L67.6039 48.8571C67.408 48.8215 67.2072 48.8215 67.0113 48.8571C66.8956 48.8654 66.7853 48.9093 66.6956 48.9827C66.6058 49.0562 66.5409 49.1556 66.5099 49.2673C66.462 49.3918 66.4554 49.5284 66.4909 49.657C66.5265 49.7855 66.6024 49.8993 66.7074 49.9815C67.0053 50.2202 67.3456 50.4006 67.7103 50.5133C68.0919 50.6453 68.4917 50.7171 68.8955 50.726C69.0464 50.7406 69.1978 50.7034 69.3248 50.6205C69.4518 50.5377 69.5469 50.4142 69.5944 50.2702C69.6373 50.1509 69.6397 50.0207 69.6012 49.8999C69.5628 49.7791 69.4856 49.6742 69.3817 49.6016C69.2055 49.4808 69.017 49.379 68.8195 49.2977L69.1842 47.8846Z" fill="#262626"/>
<path d="M66.6464 45.6969L66.7375 45.0133L65.3399 44.831L65.507 43.5853L66.9047 43.7676L67.011 42.9624L67.9529 43.0839L67.8466 43.8891L70.0949 44.1777C70.3988 44.1777 70.5051 44.1777 70.5963 44.1777C70.6456 44.1531 70.6881 44.1166 70.7199 44.0715C70.7517 44.0265 70.7719 43.9742 70.7786 43.9195C70.8093 43.764 70.8093 43.604 70.7786 43.4485L71.7356 43.5701C71.7737 43.9032 71.7737 44.2396 71.7356 44.5727C71.7254 44.7218 71.6851 44.8673 71.6173 45.0005C71.5494 45.1336 71.4553 45.2516 71.3407 45.3475C70.9998 45.5272 70.6034 45.5707 70.2317 45.469L67.725 45.1348L67.6339 45.8185L66.6464 45.6969Z" fill="#262626"/>
<path d="M40 65.1879C35.1565 65.1879 30.4218 63.7517 26.3946 61.0608C22.3674 58.3699 19.2285 54.5452 17.375 50.0704C15.5215 45.5956 15.0365 40.6716 15.9814 35.9212C16.9263 31.1707 19.2587 26.8072 22.6836 23.3823C26.1085 19.9574 30.472 17.6251 35.2224 16.6802C39.9729 15.7352 44.8968 16.2202 49.3716 18.0737C53.8464 19.9273 57.6711 23.0661 60.362 27.0933C63.0529 31.1205 64.4892 35.8553 64.4892 40.6988C64.4852 47.1925 61.9038 53.419 57.3121 58.0108C52.7203 62.6025 46.4937 65.1839 40 65.1879ZM40 16.7261C35.255 16.7261 30.6166 18.1334 26.6715 20.7699C22.7264 23.4064 19.6519 27.1536 17.8367 31.5377C16.0216 35.9218 15.5474 40.7458 16.4742 45.3993C17.401 50.0529 19.6872 54.3271 23.0435 57.6813C26.3997 61.0355 30.6754 63.3189 35.3296 64.2427C39.9838 65.1666 44.8074 64.6894 49.1903 62.8715C53.5733 61.0536 57.3186 57.9766 59.9526 54.0298C62.5866 50.0831 63.9909 45.4438 63.9879 40.6988C63.9798 34.3407 61.4495 28.2455 56.9522 23.7511C52.4549 19.2566 46.3581 16.7301 40 16.7261Z" fill="#262626"/>
<path d="M40 63.5929C35.472 63.5929 31.0457 62.2502 27.2808 59.7345C23.5159 57.2189 20.5815 53.6434 18.8487 49.46C17.1159 45.2767 16.6625 40.6735 17.5459 36.2324C18.4292 31.7914 20.6097 27.7121 23.8115 24.5103C27.0133 21.3085 31.0926 19.1281 35.5336 18.2447C39.9746 17.3614 44.5778 17.8147 48.7612 19.5475C52.9445 21.2803 56.5201 24.2147 59.0357 27.9796C61.5513 31.7445 62.894 36.1708 62.894 40.6989C62.89 46.7695 60.4767 52.5903 56.1841 56.8829C51.8915 61.1755 46.0706 63.5889 40 63.5929ZM40 19.2328C35.7508 19.2328 31.597 20.4931 28.0641 22.8541C24.5312 25.2152 21.7779 28.571 20.1525 32.4971C18.5271 36.4231 18.1026 40.743 18.9327 44.9104C19.7628 49.0778 21.8102 52.9053 24.8159 55.9089C27.8216 58.9125 31.6506 60.9572 35.8185 61.7843C39.9865 62.6115 44.3061 62.1839 48.231 60.5557C52.1559 58.9275 55.5098 56.1719 57.8683 52.6373C60.2269 49.1027 61.4842 44.9481 61.4812 40.6989C61.4731 35.0056 59.2069 29.548 55.1797 25.5236C51.1525 21.4993 45.6933 19.2369 40 19.2328Z" fill="#262626"/>
<path d="M40.0007 76.5977C32.7625 76.5977 25.6868 74.4513 19.6685 70.43C13.6501 66.4087 8.95937 60.693 6.18943 54.0058C3.41948 47.3185 2.69474 39.9601 4.10684 32.8609C5.51895 25.7618 9.00448 19.2409 14.1227 14.1227C19.2409 9.00448 25.7618 5.51895 32.8609 4.10684C39.9601 2.69474 47.3185 3.41948 54.0058 6.18943C60.693 8.95937 66.4087 13.6501 70.43 19.6685C74.4513 25.6868 76.5977 32.7625 76.5977 40.0007C76.5897 49.7043 72.7313 59.0083 65.8698 65.8698C59.0083 72.7313 49.7043 76.5897 40.0007 76.5977ZM40.0007 4.83167C33.0413 4.83167 26.2381 6.89557 20.4518 10.7623C14.6655 14.6291 10.1558 20.125 7.49327 26.555C4.8307 32.9849 4.13483 40.0601 5.49365 46.8856C6.85247 53.711 10.205 59.9802 15.1271 64.9002C20.0492 69.8202 26.3198 73.17 33.1459 74.5259C39.972 75.8817 47.0468 75.1828 53.4756 72.5175C59.9044 69.8521 65.3984 65.3401 69.2627 59.5521C73.1269 53.7641 75.1879 46.9601 75.1849 40.0007C75.1728 30.6743 71.4615 21.7337 64.8654 15.1404C58.2693 8.5471 49.327 4.83971 40.0007 4.83167Z" fill="#262626"/>
<path d="M40 80C32.0888 80 24.3552 77.654 17.7772 73.2588C11.1992 68.8635 6.07234 62.6164 3.04484 55.3073C0.0173315 47.9983 -0.774802 39.9556 0.768607 32.1964C2.31202 24.4372 6.12164 17.3098 11.7157 11.7157C17.3098 6.12164 24.4372 2.31202 32.1964 0.768607C39.9556 -0.774802 47.9983 0.0173315 55.3073 3.04484C62.6164 6.07234 68.8635 11.1992 73.2588 17.7772C77.654 24.3552 80 32.0888 80 40C79.9879 50.605 75.7698 60.7721 68.271 68.271C60.7721 75.7698 50.605 79.9879 40 80ZM40 1.42805C32.3675 1.42805 24.9065 3.69153 18.5606 7.93221C12.2146 12.1729 7.2688 18.2003 4.34868 25.252C1.42855 32.3038 0.665286 40.0632 2.15541 47.5488C3.64554 55.0344 7.32212 61.9099 12.7201 67.3058C18.1182 72.7017 24.9952 76.3756 32.4813 77.8628C39.9675 79.3499 47.7266 78.5836 54.7772 75.6607C61.8278 72.7378 67.8533 67.7896 72.0914 61.442C76.3296 55.0944 78.5902 47.6325 78.5872 40C78.5751 29.7712 74.5053 19.9649 67.271 12.7335C60.0367 5.50201 50.2289 1.43609 40 1.42805Z" fill="#262626"/>
<path d="M47.1097 44.5576C46.4211 44.5554 45.7361 44.4583 45.074 44.2689H44.8917V44.0866C44.5687 43.0645 44.4939 41.9801 44.6735 40.9234C44.8532 39.8666 45.2821 38.8678 45.9248 38.0099C48.477 34.6829 53.703 33.8474 53.7485 33.8474H54.5081L54.0068 34.4246C52.9567 35.4884 52.3487 36.9107 52.3053 38.4049C52.392 39.4273 52.2333 40.4557 51.8422 41.4043C51.4511 42.353 50.839 43.1945 50.0569 43.8587C49.1693 44.3881 48.1405 44.6321 47.1097 44.5576ZM45.5906 43.6461C46.2775 43.8456 46.9978 43.904 47.7079 43.8179C48.418 43.7317 49.1034 43.5027 49.7227 43.1447C50.4076 42.5388 50.9403 41.7804 51.2781 40.9307C51.6159 40.0809 51.7492 39.1637 51.6673 38.253C51.6793 36.9399 52.1164 35.666 52.913 34.6221C51.3027 35.0475 47.9149 36.1413 46.2894 38.6783C45.826 39.4089 45.5239 40.23 45.4034 41.0867C45.2829 41.9434 45.3467 42.816 45.5906 43.6461Z" fill="#262626"/>
<path d="M40.0911 43.8283C34.1207 43.8283 32.0395 38.815 31.0672 36.4907C30.9456 36.1868 30.8241 35.9134 30.733 35.7159C30.341 34.8411 29.7583 34.0651 29.0275 33.4448C28.2967 32.8244 27.4364 32.3754 26.5096 32.1306V31.4318C27.0262 31.4318 39.2404 31.1735 43.1295 36.1261C43.7003 36.8665 44.0817 37.7351 44.2405 38.6565C44.3994 39.5778 44.3309 40.524 44.041 41.4128L43.8587 42.1116L43.4181 41.5343C42.1507 39.8748 40.6866 38.375 39.0581 37.068C40.7899 38.815 42.9775 41.3065 43.3573 43.0383V43.3726L43.0231 43.4485C42.0632 43.6849 41.0796 43.8123 40.0911 43.8283ZM28.4238 32.161C29.7173 32.9156 30.7465 34.0509 31.371 35.4121L31.7204 36.2172C32.8294 38.9062 35.1386 44.4208 42.5978 42.8408C41.6711 40.1519 36.521 35.6095 36.521 35.564L35.1386 34.3486L36.8704 34.9563C39.6809 35.959 42.5066 39.1644 43.5852 40.5165C43.7264 39.8303 43.7166 39.1216 43.5566 38.4396C43.3966 37.7575 43.0901 37.1184 42.6585 36.5666C39.8025 32.9966 32.0395 32.2977 28.4238 32.161Z" fill="#262626"/>
<path d="M45.1956 56.3616H44.9221C44.7702 56.2856 44.2689 55.997 44.4815 55.0095C44.4815 54.8728 44.5727 54.6753 44.6486 54.417C45.329 52.5415 45.5944 50.5406 45.4265 48.5526C45.2587 46.5645 44.6616 44.6365 43.6764 42.9016L42.5522 40.7596L44.2689 42.4307C44.4663 42.613 48.8264 46.9882 45.9096 55.9362C45.8463 56.0701 45.7446 56.182 45.6175 56.2578C45.4903 56.3336 45.3434 56.3697 45.1956 56.3616ZM46.1374 50.7558C46.0126 52.0579 45.7425 53.342 45.3323 54.5841C45.3323 54.812 45.1956 54.9943 45.1652 55.1158C45.1652 55.5108 45.1652 55.6475 45.1652 55.6627C45.7113 54.079 46.0385 52.4281 46.1374 50.7558Z" fill="#262626"/>
<path d="M39.8481 44.7855C35.6552 44.7855 32.7687 42.5978 30.733 37.9795C29.3658 34.7437 27.9681 32.9966 26.6009 32.7839C26.5246 32.7775 26.4513 32.7513 26.3882 32.708L26.4793 32.6016L26.5553 32.4801H26.6464C27.1933 32.5713 28.8644 32.8447 30.9913 37.858C33.1181 42.8713 36.2477 44.8614 40.9419 44.436V44.7247L39.8481 44.7855Z" fill="#262626"/>
<path d="M45.0437 38.5112L44.8006 38.3593C45.9049 36.8068 47.3558 35.533 49.0383 34.6391C50.7207 33.7451 52.5883 33.2556 54.493 33.2093V33.4372C52.6318 33.4898 50.8086 33.9759 49.1683 34.8567C47.5279 35.7376 46.1156 36.9889 45.0437 38.5112Z" fill="#262626"/>
<path d="M46.8667 45.0589V44.7854C52.1534 44.588 52.4725 40.0912 52.5636 38.6176C52.6603 37.6942 52.8695 36.7861 53.1865 35.9134C53.2369 35.7799 53.2776 35.6428 53.308 35.5033L53.5663 35.4121C53.5663 35.5033 53.5663 35.6248 53.4599 35.9894C53.1609 36.8423 52.977 37.7312 52.913 38.6328C52.7307 40.1671 52.4117 44.8614 46.8667 45.0589Z" fill="#262626"/>
<path d="M41.7015 34.4398C38.6631 31.523 27.6643 30.9609 27.5579 30.9457V30.6722C28.0137 30.6722 38.7543 31.2495 41.899 34.2271L41.7015 34.4398Z" fill="#262626"/>
<path d="M44.436 54.1132L44.1625 54.022C45.1137 51.1152 45.1137 47.9809 44.1625 45.0741L44.4208 44.9677C45.3988 47.9369 45.4041 51.1407 44.436 54.1132Z" fill="#262626"/>
<path d="M45.2108 56.9692C44.9938 56.9678 44.7862 56.8804 44.6335 56.7262L44.831 56.5287L44.7246 56.635L44.831 56.5287C44.9032 56.6007 44.9945 56.6504 45.0942 56.672C45.1938 56.6935 45.2976 56.686 45.3931 56.6502C45.8488 56.4831 46.654 55.526 46.9882 51.0444H47.2617C47.0034 54.5993 46.3957 56.5591 45.4994 56.9085L45.2108 56.9692Z" fill="#262626"/>
<path d="M10.513 38.3598C11.3018 38.3598 11.9413 37.7204 11.9413 36.9315C11.9413 36.1427 11.3018 35.5032 10.513 35.5032C9.72419 35.5032 9.08472 36.1427 9.08472 36.9315C9.08472 37.7204 9.72419 38.3598 10.513 38.3598Z" fill="#262626"/>
<path d="M68.9103 38.3598C69.6991 38.3598 70.3386 37.7204 70.3386 36.9315C70.3386 36.1427 69.6991 35.5032 68.9103 35.5032C68.1215 35.5032 67.482 36.1427 67.482 36.9315C67.482 37.7204 68.1215 38.3598 68.9103 38.3598Z" fill="#262626"/>
</svg>
