<svg width="80" height="80" viewBox="0 0 80 80" fill="none" xmlns="http://www.w3.org/2000/svg">
<path d="M26.0995 17.8655L24.8994 18.5644L21.5572 12.8522L22.8029 12.1686L24.0486 14.3259L25.5678 13.4143L24.3221 11.2571L25.5222 10.5583L28.8796 16.2704L27.6795 16.9692L26.2362 14.5082L24.7171 15.4197L26.0995 17.8655Z" fill="#262626"/>
<path d="M33.4372 11.2875C33.3786 10.9349 33.4153 10.573 33.5435 10.2393C33.687 9.95643 33.9035 9.7171 34.1706 9.54614C34.4378 9.37518 34.7458 9.2788 35.0627 9.26701C35.4969 9.17686 35.9483 9.22467 36.354 9.40374C36.5908 9.54358 36.7886 9.74069 36.9293 9.97694C37.07 10.2132 37.149 10.481 37.1592 10.7558L37.4782 12.9282C37.4913 13.1808 37.5532 13.4284 37.6605 13.6574C37.6605 13.7638 37.7668 13.7942 37.8428 13.8094L36.5667 14.022L36.4755 13.6878C36.3749 13.9331 36.1995 14.1404 35.9742 14.2803C35.7752 14.4185 35.546 14.507 35.3058 14.5386C35.078 14.6055 34.836 14.6068 34.6076 14.5423C34.3792 14.4778 34.1736 14.3501 34.0145 14.174C33.8402 13.9419 33.7255 13.6707 33.6802 13.384C33.6252 13.1231 33.6476 12.8517 33.7448 12.6034C33.842 12.3551 34.0096 12.1406 34.2272 11.9863C34.5119 11.804 34.8251 11.6705 35.1538 11.5914C35.5792 11.4698 35.8071 11.3939 35.8831 11.2723C35.9354 11.1301 35.9354 10.974 35.8831 10.8318C35.8771 10.706 35.8349 10.5847 35.7615 10.4824C35.7043 10.4024 35.6248 10.3411 35.533 10.306C35.4411 10.2708 35.341 10.2635 35.245 10.2849C35.153 10.2918 35.0639 10.3201 34.9847 10.3676C34.9056 10.4151 34.8387 10.4804 34.7892 10.5583C34.737 10.7524 34.737 10.9568 34.7892 11.1508L33.4372 11.2875ZM36.0046 11.9104C35.7998 12.0275 35.5865 12.1291 35.3665 12.2142C35.1933 12.2624 35.0393 12.3632 34.926 12.5029C34.8817 12.5691 34.8521 12.644 34.839 12.7226C34.8259 12.8011 34.8297 12.8816 34.85 12.9586C34.8558 13.0437 34.879 13.1268 34.9182 13.2026C34.9574 13.2783 35.0118 13.3453 35.0779 13.3992C35.1908 13.4398 35.3144 13.4398 35.4273 13.3992C35.5207 13.3845 35.6099 13.3498 35.6886 13.2973C35.7673 13.2449 35.8336 13.176 35.8831 13.0953C35.9832 12.9453 36.0457 12.7733 36.0654 12.594C36.0876 12.4226 36.0876 12.2489 36.0654 12.0775L36.0046 11.9104Z" fill="#262626"/>
<path d="M45.0893 9.90508C45.2291 9.75738 45.4005 9.64314 45.5906 9.57086C45.8599 9.50333 46.1417 9.50333 46.411 9.57086C46.5982 9.59874 46.7765 9.66944 46.932 9.77748C47.0874 9.88551 47.2159 10.0279 47.3073 10.1937C47.4675 10.6874 47.4675 11.2192 47.3073 11.7129L46.7452 14.7513L45.5906 14.4474L46.1071 11.7281C46.1892 11.4213 46.2149 11.1022 46.1831 10.7862C46.1629 10.6865 46.1128 10.5954 46.0395 10.5248C45.9663 10.4543 45.8733 10.4077 45.7729 10.3912C45.6679 10.3733 45.56 10.382 45.4591 10.4165C45.3583 10.451 45.2677 10.5102 45.1956 10.5887C44.9945 10.8771 44.8691 11.2114 44.831 11.561L44.3145 14.2195L43.0536 13.9765L43.9651 9.25183L45.1804 9.47971L45.0893 9.90508Z" fill="#262626"/>
<path d="M54.2044 18.0631L54.4778 17.5465C54.32 17.6714 54.1307 17.7502 53.9309 17.7744C53.6393 17.8228 53.3403 17.7576 53.0954 17.5921C52.8536 17.4714 52.651 17.2846 52.5111 17.0533C52.3713 16.822 52.3 16.5558 52.3054 16.2856C52.3181 15.6256 52.5183 14.9827 52.8827 14.4322C53.175 13.926 53.5806 13.4944 54.0677 13.1713C54.3204 12.9982 54.6196 12.9056 54.926 12.9056C55.2324 12.9056 55.5316 12.9982 55.7843 13.1713C56.0376 13.3154 56.2355 13.5399 56.3464 13.8094C56.3987 13.9254 56.4345 14.0481 56.4528 14.174L57.5618 12.3358L58.6708 13.0042L55.2374 18.6707L54.2044 18.0631ZM55.8147 14.888C55.8469 14.7477 55.835 14.6009 55.7806 14.4677C55.7262 14.3345 55.632 14.2213 55.5109 14.1436C55.3938 14.0658 55.2564 14.0244 55.1159 14.0244C54.9754 14.0244 54.838 14.0658 54.7209 14.1436C54.409 14.3811 54.1503 14.6812 53.9613 15.0247C53.7461 15.3508 53.6012 15.7181 53.5359 16.1033C53.5015 16.2436 53.5123 16.3912 53.5669 16.5249C53.6214 16.6586 53.717 16.7716 53.8398 16.8477C53.9639 16.9248 54.1097 16.959 54.2552 16.9453C54.4006 16.9316 54.5375 16.8706 54.6449 16.7718C54.9504 16.5317 55.2037 16.2319 55.3893 15.8906C55.5886 15.5838 55.7326 15.2445 55.8147 14.888Z" fill="#262626"/>
<path d="M24.8538 63.8207L24.5956 64.2613C24.7409 64.1706 24.8999 64.1039 25.0665 64.0638C25.2089 64.033 25.356 64.0305 25.4994 64.0566C25.6428 64.0827 25.7796 64.1367 25.902 64.2157C26.0443 64.2858 26.1696 64.3859 26.2692 64.5092C26.3689 64.6325 26.4406 64.776 26.4793 64.9297C26.5089 65.1159 26.5089 65.3056 26.4793 65.4918C26.6722 65.3688 26.8903 65.2909 27.1174 65.2639C27.2714 65.2334 27.43 65.2338 27.5838 65.2651C27.7377 65.2964 27.8838 65.358 28.0137 65.4462C28.1882 65.5321 28.3382 65.6607 28.4498 65.8201C28.5613 65.9794 28.6308 66.1644 28.6518 66.3578C28.6606 66.9037 28.4898 67.4375 28.1656 67.8769L26.6464 70.414L25.5374 69.7607L26.9655 67.3148C27.0788 67.1185 27.1803 66.9156 27.2693 66.7072C27.3757 66.4641 27.406 66.1906 27.1326 66.0235C27.012 65.9616 26.8738 65.9429 26.7411 65.9706C26.6084 65.9982 26.4892 66.0705 26.4034 66.1755C26.2239 66.3651 26.066 66.574 25.9324 66.7983L24.55 69.1834L23.441 68.5454L24.8538 66.0995C24.8538 66.0083 25.1273 65.6134 25.188 65.4462C25.2487 65.3351 25.2637 65.2046 25.2296 65.0826C25.1956 64.9606 25.1152 64.8567 25.0057 64.793C24.8915 64.7429 24.7647 64.7291 24.6424 64.7536C24.5201 64.778 24.4082 64.8395 24.3221 64.9297C24.1213 65.1099 23.9564 65.3264 23.836 65.5678L22.4535 67.9681L21.3293 67.3148L23.7448 63.1675L24.8538 63.8207Z" fill="#262626"/>
<path d="M34.2575 69.3509C34.269 69.1024 34.3364 68.8596 34.4545 68.6407C34.5727 68.4218 34.7387 68.2323 34.9402 68.0863C35.1416 67.9404 35.3734 67.8416 35.6182 67.7975C35.863 67.7534 36.1147 67.765 36.3544 67.8314C36.7976 67.8671 37.2179 68.0427 37.5548 68.3328C37.7578 68.533 37.9053 68.7825 37.9825 69.057C38.0598 69.3314 38.0643 69.6212 37.9954 69.8979L37.6763 72.0707C37.6294 72.3218 37.6294 72.5794 37.6763 72.8305C37.6775 72.8713 37.6913 72.9107 37.7158 72.9434C37.7402 72.976 37.7742 73.0003 37.8131 73.0128L36.476 72.9368V72.4658C36.3086 72.6731 36.0798 72.822 35.8226 72.8913C35.5444 72.9903 35.2435 73.0061 34.9565 72.9368C34.7199 72.9315 34.4894 72.8604 34.2908 72.7316C34.0923 72.6028 33.9335 72.4214 33.8321 72.2075C33.7259 71.9373 33.6893 71.6447 33.7257 71.3566C33.7474 71.0901 33.8468 70.8357 34.0115 70.6251C34.1763 70.4144 34.3991 70.2567 34.6526 70.1714C34.9838 70.0801 35.3277 70.0441 35.6706 70.065C36.1113 70.065 36.3392 70.065 36.4608 69.9739C36.5592 69.854 36.613 69.7036 36.6127 69.5484C36.6429 69.4287 36.6429 69.3034 36.6127 69.1837C36.5861 69.0874 36.5285 69.0025 36.4489 68.9421C36.3693 68.8817 36.272 68.8492 36.1721 68.8495C36.0837 68.8289 35.9916 68.8306 35.9041 68.8545C35.8165 68.8784 35.7363 68.9236 35.6706 68.9862C35.5386 69.1354 35.4539 69.3205 35.4275 69.518L34.2575 69.3509ZM36.5215 70.7032C36.2933 70.765 36.0588 70.8006 35.8226 70.8096C35.6442 70.8101 35.4698 70.8629 35.3212 70.9615C35.2046 71.0675 35.1338 71.2146 35.1236 71.3718C35.1029 71.4546 35.1003 71.5409 35.116 71.6249C35.1318 71.7088 35.1655 71.7883 35.2148 71.858C35.2968 71.9513 35.4105 72.0109 35.5339 72.0252C35.6258 72.0353 35.7187 72.027 35.8074 72.0009C35.8961 71.9748 35.9787 71.9314 36.0505 71.8732C36.1923 71.7555 36.302 71.604 36.3696 71.4326C36.4261 71.2749 36.4668 71.112 36.4911 70.9463L36.5215 70.7032Z" fill="#262626"/>
<path d="M47.4895 72.2522L47.3376 71.7053C47.2978 71.906 47.2091 72.0939 47.0793 72.2522C46.9035 72.489 46.6416 72.6473 46.3501 72.6927C46.0836 72.7696 45.8011 72.772 45.5333 72.6997C45.2655 72.6274 45.0226 72.4831 44.831 72.2826C44.4235 71.7802 44.1609 71.1761 44.0714 70.5355C43.9346 69.9663 43.9346 69.3728 44.0714 68.8036C44.1387 68.5041 44.2953 68.232 44.5203 68.0231C44.7454 67.8143 45.0285 67.6786 45.3323 67.6339C45.6163 67.562 45.9163 67.5888 46.183 67.7098C46.302 67.762 46.4142 67.8283 46.5173 67.9073L46.0767 65.8109L47.3376 65.5374L48.6289 72.0243L47.4895 72.2522ZM46.4869 68.8492C46.417 68.7263 46.31 68.6287 46.1812 68.5704C46.0524 68.5122 45.9084 68.4962 45.77 68.5249C45.6316 68.5536 45.5058 68.6255 45.4108 68.7302C45.3158 68.8348 45.2564 68.9669 45.2411 69.1075C45.1582 69.493 45.1582 69.8917 45.2411 70.2773C45.3069 70.6623 45.4517 71.0296 45.6665 71.3559C45.7378 71.4802 45.8472 71.5783 45.9785 71.6357C46.1098 71.6932 46.256 71.7069 46.3957 71.6749C46.5396 71.6537 46.6715 71.5829 46.7686 71.4747C46.8657 71.3665 46.9219 71.2277 46.9274 71.0824C47.0065 70.7016 47.0065 70.3086 46.9274 69.9278C46.8554 69.5421 46.7055 69.1751 46.4869 68.8492Z" fill="#262626"/>
<path d="M57.9272 65.9785C58.0935 66.4296 58.0935 66.9252 57.9272 67.3764C57.7298 67.8163 57.3935 68.1792 56.97 68.4096C56.7361 68.5847 56.4655 68.7044 56.1786 68.7597C55.8917 68.815 55.596 68.8044 55.3138 68.7287C54.6722 68.4499 54.1389 67.9699 53.7943 67.3612C53.3893 66.7986 53.2103 66.1045 53.2929 65.4163C53.3372 65.1165 53.451 64.8313 53.6251 64.5833C53.7992 64.3353 54.0289 64.1315 54.2957 63.988C54.5699 63.7833 54.8959 63.6592 55.2368 63.6297C55.5777 63.6001 55.9201 63.6663 56.2254 63.8208C56.7486 64.1489 57.1861 64.5968 57.5018 65.1276L57.6537 65.3555L55.1466 66.8749C55.3257 67.1706 55.5766 67.4163 55.876 67.5891C55.9894 67.6322 56.112 67.6451 56.2319 67.6265C56.3518 67.6078 56.4648 67.5583 56.5597 67.4827C56.6604 67.4337 56.746 67.3584 56.8075 67.2648C56.869 67.1712 56.9041 67.0628 56.9092 66.9509C56.9215 66.8297 56.9215 66.7075 56.9092 66.5862L57.9272 65.9785ZM56.1039 65.3403C55.9557 65.0907 55.7532 64.8778 55.5113 64.7173C55.4105 64.6487 55.2914 64.612 55.1694 64.612C55.0475 64.612 54.9284 64.6487 54.8275 64.7173C54.734 64.7714 54.6539 64.846 54.5934 64.9354C54.5329 65.0249 54.4934 65.127 54.478 65.2339C54.4641 65.5603 54.5489 65.8833 54.7212 66.1608L56.1039 65.3403Z" fill="#262626"/>
<path d="M40 65.1879C35.1565 65.1879 30.4218 63.7517 26.3946 61.0608C22.3674 58.3699 19.2285 54.5452 17.375 50.0704C15.5215 45.5956 15.0365 40.6716 15.9814 35.9212C16.9263 31.1707 19.2587 26.8072 22.6836 23.3823C26.1084 19.9574 30.472 17.6251 35.2224 16.6802C39.9729 15.7352 44.8968 16.2202 49.3716 18.0737C53.8464 19.9273 57.6711 23.0661 60.362 27.0933C63.0529 31.1205 64.4892 35.8553 64.4892 40.6988C64.4852 47.1925 61.9038 53.419 57.312 58.0108C52.7203 62.6025 46.4937 65.1839 40 65.1879ZM40 16.7261C35.255 16.7261 30.6166 18.1334 26.6715 20.7699C22.7264 23.4064 19.6518 27.1536 17.8367 31.5377C16.0216 35.9218 15.5474 40.7458 16.4742 45.3993C17.401 50.0529 19.6872 54.3271 23.0434 57.6813C26.3997 61.0355 30.6754 63.3189 35.3296 64.2427C39.9837 65.1666 44.8074 64.6894 49.1903 62.8715C53.5732 61.0536 57.3186 57.9766 59.9526 54.0298C62.5866 50.0831 63.9909 45.4438 63.9879 40.6988C63.9798 34.3407 61.4495 28.2455 56.9522 23.7511C52.4549 19.2566 46.3581 16.7301 40 16.7261Z" fill="#262626"/>
<path d="M40 63.5929C35.472 63.5929 31.0457 62.2502 27.2808 59.7345C23.5159 57.2189 20.5815 53.6434 18.8487 49.46C17.1159 45.2767 16.6625 40.6735 17.5459 36.2324C18.4293 31.7914 20.6097 27.7121 23.8115 24.5103C27.0133 21.3085 31.0926 19.1281 35.5336 18.2447C39.9746 17.3614 44.5779 17.8147 48.7612 19.5475C52.9445 21.2803 56.5201 24.2147 59.0357 27.9796C61.5514 31.7445 62.8941 36.1708 62.8941 40.6989C62.89 46.7695 60.4767 52.5903 56.1841 56.8829C51.8915 61.1755 46.0707 63.5889 40 63.5929ZM40 19.2328C35.7508 19.2328 31.597 20.4931 28.0642 22.8541C24.5313 25.2152 21.778 28.571 20.1526 32.4971C18.5271 36.4231 18.1026 40.743 18.9327 44.9104C19.7628 49.0778 21.8102 52.9053 24.8159 55.9089C27.8216 58.9125 31.6506 60.9572 35.8186 61.7843C39.9865 62.6115 44.3062 62.1839 48.2311 60.5557C52.156 58.9275 55.5098 56.1719 57.8684 52.6373C60.2269 49.1027 61.4842 44.9481 61.4812 40.6989C61.4732 35.0056 59.2069 29.548 55.1797 25.5236C51.1525 21.4993 45.6933 19.2369 40 19.2328Z" fill="#262626"/>
<path d="M40.0007 76.5977C32.7624 76.5977 25.6868 74.4513 19.6684 70.43C13.6501 66.4087 8.95935 60.693 6.18941 54.0058C3.41947 47.3185 2.69472 39.9601 4.10683 32.8609C5.51893 25.7618 9.00446 19.2409 14.1227 14.1227C19.2408 9.00448 25.7618 5.51895 32.8609 4.10684C39.9601 2.69474 47.3185 3.41948 54.0057 6.18943C60.693 8.95937 66.4086 13.6501 70.43 19.6685C74.4513 25.6868 76.5977 32.7625 76.5977 40.0007C76.5896 49.7043 72.7313 59.0083 65.8698 65.8698C59.0083 72.7313 49.7043 76.5897 40.0007 76.5977ZM40.0007 4.83167C33.0412 4.83167 26.2381 6.89557 20.4518 10.7623C14.6655 14.6291 10.1558 20.125 7.49325 26.555C4.83069 32.9849 4.13481 40.0601 5.49363 46.8856C6.85246 53.711 10.2049 59.9802 15.1271 64.9002C20.0492 69.8202 26.3198 73.17 33.1459 74.5259C39.9719 75.8817 47.0468 75.1828 53.4756 72.5175C59.9044 69.8521 65.3984 65.3401 69.2626 59.5521C73.1269 53.7641 75.1879 46.9601 75.1849 40.0007C75.1728 30.6743 71.4615 21.7337 64.8654 15.1404C58.2693 8.5471 49.327 4.83971 40.0007 4.83167Z" fill="#262626"/>
<path d="M40 80C32.0888 80 24.3552 77.654 17.7772 73.2588C11.1992 68.8635 6.07234 62.6164 3.04484 55.3073C0.0173315 47.9983 -0.774802 39.9556 0.768607 32.1964C2.31202 24.4372 6.12164 17.3098 11.7157 11.7157C17.3098 6.12164 24.4372 2.31202 32.1964 0.768607C39.9556 -0.774802 47.9983 0.0173315 55.3073 3.04484C62.6164 6.07234 68.8635 11.1992 73.2588 17.7772C77.654 24.3552 80 32.0888 80 40C79.9879 50.605 75.7698 60.7721 68.271 68.271C60.7721 75.7698 50.605 79.9879 40 80ZM40 1.42805C32.3675 1.42805 24.9065 3.69153 18.5606 7.93221C12.2146 12.1729 7.2688 18.2003 4.34868 25.252C1.42855 32.3038 0.665286 40.0632 2.15541 47.5488C3.64554 55.0344 7.32212 61.9099 12.7201 67.3058C18.1182 72.7017 24.9952 76.3756 32.4813 77.8628C39.9675 79.3499 47.7266 78.5836 54.7772 75.6607C61.8278 72.7378 67.8533 67.7896 72.0914 61.442C76.3296 55.0944 78.5902 47.6325 78.5872 40C78.5751 29.7712 74.5053 19.9649 67.271 12.7335C60.0367 5.50201 50.2289 1.43609 40 1.42805Z" fill="#262626"/>
<path d="M39.5139 56.7262C31.918 56.7262 30.0342 45.6362 29.9582 45.1652L29.7152 36.1869H30.414L30.6571 45.1348C30.6571 45.1348 32.4801 56.0426 39.5139 56.0426C46.8971 56.0426 49.5253 49.0088 49.5253 42.3699V32.5864H50.2241V42.4003C50.2545 49.3278 47.444 56.7262 39.5139 56.7262Z" fill="#262626"/>
<path d="M39.8785 48.2796L39.1797 48.1884C39.2465 47.5889 39.1936 46.9821 39.0241 46.4031C38.8546 45.8242 38.5718 45.2847 38.1922 44.8158C37.648 44.3519 37.006 44.0167 36.3143 43.8352C35.6225 43.6537 34.8987 43.6306 34.1968 43.7676H33.8018V41.5952L33.893 41.4888C33.893 41.4888 40.0912 35.0019 46.6085 40.5317L46.1527 41.0787C40.5166 36.278 35.2906 41.0787 34.5158 41.8686V43.0384C35.2666 42.9327 36.0315 42.9936 36.7562 43.2167C37.4808 43.4399 38.1475 43.8199 38.7088 44.3297C39.1667 44.8712 39.5071 45.5018 39.7084 46.1818C39.9098 46.8617 39.9677 47.5761 39.8785 48.2796Z" fill="#262626"/>
<path d="M42.5522 38.9517H41.8382V26.3425C41.6725 26.0797 41.45 25.8574 41.1871 25.6917C40.9243 25.5261 40.6276 25.4215 40.319 25.3855C39.978 25.4241 39.6481 25.5299 39.3482 25.6968C39.0484 25.8637 38.7845 26.0883 38.572 26.3577V27.6035H37.8428V26.0843V25.9779C38.1308 25.6084 38.4906 25.3008 38.9004 25.0737C39.3103 24.8466 39.7618 24.7046 40.2279 24.6562C40.6786 24.6821 41.1166 24.8156 41.5052 25.0456C41.8937 25.2755 42.2215 25.5952 42.4611 25.9779L42.537 26.0843L42.5522 38.9517Z" fill="#262626"/>
<path d="M38.5416 39.0581H37.8428V27.7554C37.6148 27.466 37.324 27.2322 36.9924 27.0716C36.6608 26.9111 36.297 26.828 35.9286 26.8287C35.6423 26.8738 35.3681 26.9764 35.1227 27.1305C34.8772 27.2845 34.6656 27.4868 34.5006 27.725V36.3388H33.7865V27.4972V27.4212C34.0133 27.0757 34.3105 26.7821 34.6588 26.5596C35.007 26.337 35.3983 26.1906 35.8071 26.1299C36.3038 26.1186 36.7962 26.2241 37.2448 26.4378C37.6934 26.6515 38.0855 26.9676 38.3897 27.3604L38.4808 27.4668L38.5416 39.0581Z" fill="#262626"/>
<path d="M34.5006 42.0813H33.7866V36.4756C33.5634 36.1921 33.2799 35.9619 32.9567 35.8016C32.6335 35.6413 32.2787 35.555 31.918 35.5489C31.615 35.5918 31.324 35.6962 31.0628 35.8555C30.8016 36.0149 30.5757 36.2259 30.3988 36.4756L29.8063 36.0958C30.0362 35.7564 30.3324 35.467 30.677 35.2451C31.0216 35.0232 31.4076 34.8733 31.8117 34.8045C32.3115 34.7974 32.8061 34.9061 33.2568 35.1223C33.7076 35.3384 34.1021 35.656 34.4094 36.0502L34.5006 36.1413V42.0813Z" fill="#262626"/>
<path d="M46.6389 40.6381H45.9249V28.2112C45.7561 27.8997 45.5147 27.6334 45.2212 27.4351C44.9276 27.2367 44.5906 27.1121 44.2386 27.0718C43.2815 27.0718 42.5523 28.272 42.5371 28.272L41.9294 27.9074C42.1766 27.5043 42.5084 27.1597 42.9019 26.8974C43.2953 26.6351 43.741 26.4614 44.2082 26.3882C44.6993 26.4209 45.1742 26.5773 45.5885 26.843C46.0029 27.1086 46.3433 27.4747 46.5781 27.9074V27.9985L46.6389 40.6381Z" fill="#262626"/>
<path d="M46.5782 32.9666L46.0008 32.5563C46.2585 32.1812 46.5942 31.8661 46.985 31.6327C47.3757 31.3993 47.8123 31.2531 48.2648 31.204C48.6781 31.2491 49.0732 31.3982 49.4133 31.6373C49.7534 31.8765 50.0274 32.1979 50.2097 32.5715L49.6019 32.9514C49.1917 32.2676 48.7358 31.9181 48.2496 31.9029C47.3531 31.9181 46.5782 32.9514 46.5782 32.9666Z" fill="#262626"/>
<path d="M39.5139 57.744C29.8671 57.744 28.9708 44.0714 28.9708 43.8739H29.2443C29.2443 44.0106 30.1558 57.7288 39.7722 57.5465V57.744H39.5139Z" fill="#262626"/>
<path d="M46.1527 27.087C46.037 26.7979 45.8604 26.537 45.635 26.322C45.4096 26.1071 45.1406 25.9431 44.8462 25.8413C44.2699 25.7409 43.677 25.866 43.1903 26.1907L43.0536 26.2819V26.1451C41.9446 24.0942 40.547 24.0335 39.8178 24.1854C39.3203 24.2667 38.8572 24.4909 38.4849 24.8308C38.1127 25.1707 37.8473 25.6115 37.7213 26.0996V26.373L37.5238 26.1907C37.0428 25.7699 36.4145 25.5568 35.7767 25.5982C35.4679 25.6739 35.1808 25.8203 34.9382 26.0259C34.6957 26.2316 34.5042 26.4908 34.3791 26.7832L34.1208 26.6465C34.2699 26.3174 34.4926 26.027 34.7719 25.7978C35.0511 25.5687 35.3793 25.4068 35.7312 25.3248C36.3709 25.2556 37.0127 25.4351 37.5238 25.8261C37.7041 25.3375 38.007 24.9034 38.4034 24.5655C38.7998 24.2277 39.2763 23.9974 39.7874 23.8967C40.485 23.8058 41.1932 23.947 41.8027 24.2984C42.4122 24.6498 42.8891 25.192 43.1599 25.8413C43.6868 25.5332 44.3071 25.4253 44.907 25.5375C45.2468 25.6456 45.5588 25.8267 45.8213 26.0682C46.0837 26.3096 46.2902 26.6055 46.4262 26.9351L46.1527 27.087Z" fill="#262626"/>
<path d="M50.3001 49.3125L50.0266 49.2214C51.3483 45.3627 51.0748 39.0581 50.9533 37.2047V37.0983H51.2268V37.2047C51.3483 39.0429 51.6673 45.4082 50.3001 49.3125Z" fill="#262626"/>
<path d="M10.589 38.2687C11.3779 38.2687 12.0173 37.6292 12.0173 36.8404C12.0173 36.0516 11.3779 35.4121 10.589 35.4121C9.80021 35.4121 9.16074 36.0516 9.16074 36.8404C9.16074 37.6292 9.80021 38.2687 10.589 38.2687Z" fill="#262626"/>
<path d="M68.9863 38.2687C69.7751 38.2687 70.4146 37.6292 70.4146 36.8404C70.4146 36.0516 69.7751 35.4121 68.9863 35.4121C68.1974 35.4121 67.558 36.0516 67.558 36.8404C67.558 37.6292 68.1974 38.2687 68.9863 38.2687Z" fill="#262626"/>
</svg>
